<?xml version="1.0" encoding="UTF-8" standalone="no"?>
<svg
   xmlns:dc="http://purl.org/dc/elements/1.1/"
   xmlns:cc="http://creativecommons.org/ns#"
   xmlns:rdf="http://www.w3.org/1999/02/22-rdf-syntax-ns#"
   xmlns:svg="http://www.w3.org/2000/svg"
   xmlns="http://www.w3.org/2000/svg"
   xmlns:sodipodi="http://sodipodi.sourceforge.net/DTD/sodipodi-0.dtd"
   xmlns:inkscape="http://www.inkscape.org/namespaces/inkscape"
   id="svg8"
   version="1.1"
   viewBox="0 0 158.74997 158.74997"
   height="158.74997mm"
   width="158.74997mm"
   sodipodi:docname="-1.svg"
   inkscape:version="0.92.5 (2060ec1f9f, 2020-04-08)">
  <metadata
     id="metadata898">
    <rdf:RDF>
      <cc:Work
         rdf:about="">
        <dc:format>image/svg+xml</dc:format>
        <dc:type
           rdf:resource="http://purl.org/dc/dcmitype/StillImage" />
        <dc:title></dc:title>
      </cc:Work>
    </rdf:RDF>
  </metadata>
  <defs
     id="defs896" />
  <sodipodi:namedview
     pagecolor="#ffffff"
     bordercolor="#666666"
     borderopacity="1"
     objecttolerance="10"
     gridtolerance="10"
     guidetolerance="10"
     inkscape:pageopacity="0"
     inkscape:pageshadow="2"
     inkscape:window-width="1920"
     inkscape:window-height="1031"
     id="namedview894"
     showgrid="false"
     inkscape:zoom="0.7066668"
     inkscape:cx="387.02078"
     inkscape:cy="299.99994"
     inkscape:window-x="0"
     inkscape:window-y="25"
     inkscape:window-maximized="1"
     inkscape:current-layer="layer1" />
  <g
     transform="translate(-8.3154945,-92.892878)"
     id="layer1">
    <rect
       style="opacity:0.98000004;fill:none;fill-opacity:1;stroke:#e6e6e6;stroke-width:4.90934372;stroke-linecap:round;stroke-miterlimit:4;stroke-dasharray:none;stroke-opacity:1"
       id="rect2065"
       width="153.84062"
       height="153.84062"
       x="10.770166"
       y="95.347549"
       ry="30.533258" />
    <g
       aria-label="-1"
       transform="scale(0.96404796,1.0372928)"
       style="font-style:normal;font-weight:normal;font-size:16.08247566px;line-height:1.25;font-family:sans-serif;letter-spacing:0px;word-spacing:0px;fill:#000000;fill-opacity:1;stroke:none;stroke-width:0.40206188"
       id="text878">
      <path
         d="m 56.249856,149.77859 h 20.316688 v 6.1817 H 56.249856 Z"
         style="font-size:77.19587708px;fill:#e6e6e6;fill-opacity:1;stroke-width:0.40206188"
         id="path890" />
      <path
         d="m 89.909973,167.60752 h 12.438787 v -42.93267 l -13.531893,2.71392 v -6.93557 l 13.456503,-2.71392 h 7.61405 v 49.86824 h 12.43879 v 6.40786 H 89.909973 Z"
         style="font-size:77.19587708px;fill:#e6e6e6;fill-opacity:1;stroke-width:0.40206188"
         id="path892" />
    </g>
    <g
       aria-label="pas de commande 
en cours d'enregistrement"
       style="font-style:normal;font-weight:normal;font-size:10.58333397px;line-height:1.25;font-family:sans-serif;letter-spacing:0px;word-spacing:0px;fill:#e60000;fill-opacity:1;stroke:none;stroke-width:0.26458335"
       id="text886">
      <path
         d="m 40.877985,205.47102 v 3.06958 h -0.956014 v -7.98917 h 0.956014 v 0.8785 q 0.299724,-0.51677 0.754476,-0.76481 0.459921,-0.25322 1.095541,-0.25322 1.054199,0 1.71049,0.83716 0.661458,0.83716 0.661458,2.20141 0,1.36426 -0.661458,2.20142 -0.656291,0.83716 -1.71049,0.83716 -0.63562,0 -1.095541,-0.24805 -0.454752,-0.25321 -0.754476,-0.76998 z m 3.234945,-2.02055 q 0,-1.04903 -0.434082,-1.64331 -0.428914,-0.59944 -1.18339,-0.59944 -0.754476,0 -1.188558,0.59944 -0.428915,0.59428 -0.428915,1.64331 0,1.04904 0.428915,1.64848 0.434082,0.59428 1.188558,0.59428 0.754476,0 1.18339,-0.59428 0.434082,-0.59944 0.434082,-1.64848 z"
         style="text-align:center;text-anchor:middle;fill:#e60000;fill-opacity:1;stroke-width:0.26458335"
         id="path895" />
      <path
         d="m 49.306412,203.4298 q -1.152385,0 -1.596802,0.26355 -0.444417,0.26355 -0.444417,0.89917 0,0.50643 0.330729,0.80616 0.335897,0.29455 0.909505,0.29455 0.79065,0 1.266073,-0.5581 0.480591,-0.56328 0.480591,-1.49345 v -0.21188 z m 1.896525,-0.39274 v 3.30213 h -0.950846 v -0.8785 q -0.325562,0.5271 -0.81132,0.78031 -0.485759,0.24805 -1.188558,0.24805 -0.888835,0 -1.415935,-0.49609 -0.521932,-0.50127 -0.521932,-1.33842 0,-0.97669 0.651123,-1.47278 0.656291,-0.4961 1.95337,-0.4961 h 1.333252 v -0.093 q 0,-0.65629 -0.434082,-1.01286 -0.428915,-0.36174 -1.209229,-0.36174 -0.496094,0 -0.966349,0.11886 -0.470256,0.11885 -0.904338,0.35657 v -0.8785 q 0.521932,-0.20154 1.012858,-0.29973 0.490926,-0.10335 0.956014,-0.10335 1.255738,0 1.875855,0.65112 0.620117,0.65113 0.620117,1.97404 z"
         style="text-align:center;text-anchor:middle;fill:#e60000;fill-opacity:1;stroke-width:0.26458335"
         id="path897" />
      <path
         d="m 56.851171,200.72196 v 0.89917 q -0.403076,-0.20671 -0.837158,-0.31006 -0.434082,-0.10335 -0.89917,-0.10335 -0.707967,0 -1.064534,0.21704 -0.3514,0.21704 -0.3514,0.65112 0,0.33073 0.253214,0.52193 0.253215,0.18604 1.018026,0.35657 l 0.325562,0.0724 q 1.012858,0.21704 1.436605,0.61495 0.428914,0.39274 0.428914,1.10071 0,0.80615 -0.640788,1.2764 -0.63562,0.47026 -1.751831,0.47026 -0.465088,0 -0.971517,-0.093 -0.501261,-0.0879 -1.059367,-0.26872 v -0.98185 q 0.5271,0.27389 1.038696,0.41341 0.511597,0.13436 1.012859,0.13436 0.671793,0 1.033528,-0.22737 0.361735,-0.23255 0.361735,-0.65113 0,-0.38757 -0.263549,-0.59428 -0.258383,-0.2067 -1.14205,-0.3979 l -0.330729,-0.0775 q -0.883667,-0.18603 -1.276408,-0.56844 -0.392741,-0.38757 -0.392741,-1.05937 0,-0.81648 0.578776,-1.2609 0.578776,-0.44442 1.643311,-0.44442 0.5271,0 0.992188,0.0775 0.465087,0.0775 0.857828,0.23254 z"
         style="text-align:center;text-anchor:middle;fill:#e60000;fill-opacity:1;stroke-width:0.26458335"
         id="path899" />
      <path
         d="m 65.848039,201.42993 v -3.1316 h 0.950846 v 8.04086 h -0.950846 v -0.86817 q -0.299723,0.51677 -0.759644,0.76998 -0.454752,0.24805 -1.09554,0.24805 -1.049032,0 -1.71049,-0.83716 -0.656291,-0.83716 -0.656291,-2.20142 0,-1.36425 0.656291,-2.20141 0.661458,-0.83716 1.71049,-0.83716 0.640788,0 1.09554,0.25322 0.459921,0.24804 0.759644,0.76481 z m -3.240113,2.02054 q 0,1.04904 0.428915,1.64848 0.434082,0.59428 1.188558,0.59428 0.754476,0 1.188558,-0.59428 0.434082,-0.59944 0.434082,-1.64848 0,-1.04903 -0.434082,-1.64331 -0.434082,-0.59944 -1.188558,-0.59944 -0.754476,0 -1.188558,0.59944 -0.428915,0.59428 -0.428915,1.64331 z"
         style="text-align:center;text-anchor:middle;fill:#e60000;fill-opacity:1;stroke-width:0.26458335"
         id="path901" />
      <path
         d="m 73.708024,203.2076 v 0.46508 h -4.371827 q 0.06201,0.98186 0.589112,1.49862 0.532267,0.5116 1.477946,0.5116 0.54777,0 1.059367,-0.13436 0.516764,-0.13436 1.023193,-0.40308 v 0.89917 q -0.511597,0.21704 -1.049032,0.33073 -0.537435,0.11369 -1.090372,0.11369 -1.384929,0 -2.196249,-0.80615 -0.806152,-0.80616 -0.806152,-2.18075 0,-1.4211 0.764811,-2.25309 0.769979,-0.83716 2.072225,-0.83716 1.167887,0 1.844849,0.75448 0.682129,0.7493 0.682129,2.04122 z m -0.950847,-0.27906 q -0.01033,-0.78031 -0.439249,-1.2454 -0.423747,-0.46509 -1.126547,-0.46509 -0.795817,0 -1.276408,0.44959 -0.475423,0.44958 -0.54777,1.26607 z"
         style="text-align:center;text-anchor:middle;fill:#e60000;fill-opacity:1;stroke-width:0.26458335"
         id="path903" />
      <path
         d="m 82.79791,200.77364 v 0.88883 q -0.403076,-0.22221 -0.81132,-0.33073 -0.403076,-0.11369 -0.816488,-0.11369 -0.925008,0 -1.436605,0.58911 -0.511596,0.58395 -0.511596,1.64331 0,1.05937 0.511596,1.64848 0.511597,0.58395 1.436605,0.58395 0.413412,0 0.816488,-0.10852 0.408244,-0.11369 0.81132,-0.3359 v 0.8785 q -0.397909,0.18603 -0.826823,0.27905 -0.423747,0.093 -0.904338,0.093 -1.307413,0 -2.077392,-0.82166 -0.769979,-0.82165 -0.769979,-2.21692 0,-1.41593 0.775146,-2.22725 0.780314,-0.81132 2.134237,-0.81132 0.43925,0 0.857829,0.093 0.418579,0.0879 0.81132,0.26872 z"
         style="text-align:center;text-anchor:middle;fill:#e60000;fill-opacity:1;stroke-width:0.26458335"
         id="path905" />
      <path
         d="m 86.694314,201.21805 q -0.764811,0 -1.209228,0.59945 -0.444418,0.59428 -0.444418,1.63297 0,1.0387 0.43925,1.63815 0.444417,0.59428 1.214396,0.59428 0.759644,0 1.204061,-0.59945 0.444417,-0.59945 0.444417,-1.63298 0,-1.02836 -0.444417,-1.6278 -0.444417,-0.60462 -1.204061,-0.60462 z m 0,-0.80615 q 1.240235,0 1.948202,0.80615 0.707967,0.80616 0.707967,2.23242 0,1.42111 -0.707967,2.23243 -0.707967,0.80615 -1.948202,0.80615 -1.245402,0 -1.953369,-0.80615 -0.7028,-0.81132 -0.7028,-2.23243 0,-1.42626 0.7028,-2.23242 0.707967,-0.80615 1.953369,-0.80615 z"
         style="text-align:center;text-anchor:middle;fill:#e60000;fill-opacity:1;stroke-width:0.26458335"
         id="path907" />
      <path
         d="m 95.432798,201.66247 q 0.356567,-0.64079 0.852661,-0.94568 0.496094,-0.30489 1.167887,-0.30489 0.904338,0 1.395264,0.63562 0.490926,0.63045 0.490926,1.79834 v 3.49333 h -0.956014 v -3.46232 q 0,-0.83199 -0.294556,-1.23507 -0.294555,-0.40308 -0.89917,-0.40308 -0.738973,0 -1.167887,0.49093 -0.428914,0.49093 -0.428914,1.33842 v 3.27112 h -0.956014 v -3.46232 q 0,-0.83716 -0.294556,-1.23507 -0.294556,-0.40308 -0.909505,-0.40308 -0.728638,0 -1.157553,0.4961 -0.428914,0.49092 -0.428914,1.33325 v 3.27112 h -0.956014 v -5.78776 h 0.956014 v 0.89917 q 0.325562,-0.53227 0.780314,-0.78548 0.454753,-0.25322 1.080038,-0.25322 0.630452,0 1.069702,0.32039 0.444417,0.3204 0.656291,0.93018 z"
         style="text-align:center;text-anchor:middle;fill:#e60000;fill-opacity:1;stroke-width:0.26458335"
         id="path909" />
      <path
         d="m 105.74225,201.66247 q 0.35656,-0.64079 0.85266,-0.94568 0.49609,-0.30489 1.16788,-0.30489 0.90434,0 1.39527,0.63562 0.49092,0.63045 0.49092,1.79834 v 3.49333 h -0.95601 v -3.46232 q 0,-0.83199 -0.29456,-1.23507 -0.29455,-0.40308 -0.89917,-0.40308 -0.73897,0 -1.16788,0.49093 -0.42892,0.49093 -0.42892,1.33842 v 3.27112 h -0.95601 v -3.46232 q 0,-0.83716 -0.29456,-1.23507 -0.29455,-0.40308 -0.9095,-0.40308 -0.72864,0 -1.15755,0.4961 -0.42892,0.49092 -0.42892,1.33325 v 3.27112 h -0.95601 v -5.78776 h 0.95601 v 0.89917 q 0.32556,-0.53227 0.78032,-0.78548 0.45475,-0.25322 1.08003,-0.25322 0.63046,0 1.06971,0.32039 0.44441,0.3204 0.65629,0.93018 z"
         style="text-align:center;text-anchor:middle;fill:#e60000;fill-opacity:1;stroke-width:0.26458335"
         id="path911" />
      <path
         d="m 114.17584,203.4298 q -1.15238,0 -1.5968,0.26355 -0.44442,0.26355 -0.44442,0.89917 0,0.50643 0.33073,0.80616 0.3359,0.29455 0.9095,0.29455 0.79065,0 1.26608,-0.5581 0.48059,-0.56328 0.48059,-1.49345 v -0.21188 z m 1.89652,-0.39274 v 3.30213 h -0.95084 v -0.8785 q -0.32556,0.5271 -0.81132,0.78031 -0.48576,0.24805 -1.18856,0.24805 -0.88883,0 -1.41593,-0.49609 -0.52194,-0.50127 -0.52194,-1.33842 0,-0.97669 0.65113,-1.47278 0.65629,-0.4961 1.95337,-0.4961 h 1.33325 v -0.093 q 0,-0.65629 -0.43408,-1.01286 -0.42892,-0.36174 -1.20923,-0.36174 -0.4961,0 -0.96635,0.11886 -0.47026,0.11885 -0.90434,0.35657 v -0.8785 q 0.52193,-0.20154 1.01286,-0.29973 0.49092,-0.10335 0.95601,-0.10335 1.25574,0 1.87586,0.65112 0.62011,0.65113 0.62011,1.97404 z"
         style="text-align:center;text-anchor:middle;fill:#e60000;fill-opacity:1;stroke-width:0.26458335"
         id="path913" />
      <path
         d="m 122.84198,202.84586 v 3.49333 h -0.95084 v -3.46232 q 0,-0.82166 -0.3204,-1.2299 -0.32039,-0.40825 -0.96118,-0.40825 -0.76998,0 -1.2144,0.49093 -0.44441,0.49093 -0.44441,1.33842 v 3.27112 h -0.95602 v -5.78776 h 0.95602 v 0.89917 q 0.34106,-0.52194 0.80098,-0.78032 0.46509,-0.25838 1.0697,-0.25838 0.99736,0 1.50896,0.62012 0.51159,0.61495 0.51159,1.81384 z"
         style="text-align:center;text-anchor:middle;fill:#e60000;fill-opacity:1;stroke-width:0.26458335"
         id="path915" />
      <path
         d="m 128.54706,201.42993 v -3.1316 h 0.95084 v 8.04086 h -0.95084 v -0.86817 q -0.29973,0.51677 -0.75965,0.76998 -0.45475,0.24805 -1.09554,0.24805 -1.04903,0 -1.71049,-0.83716 -0.65629,-0.83716 -0.65629,-2.20142 0,-1.36425 0.65629,-2.20141 0.66146,-0.83716 1.71049,-0.83716 0.64079,0 1.09554,0.25322 0.45992,0.24804 0.75965,0.76481 z m -3.24012,2.02054 q 0,1.04904 0.42892,1.64848 0.43408,0.59428 1.18856,0.59428 0.75447,0 1.18855,-0.59428 0.43409,-0.59944 0.43409,-1.64848 0,-1.04903 -0.43409,-1.64331 -0.43408,-0.59944 -1.18855,-0.59944 -0.75448,0 -1.18856,0.59944 -0.42892,0.59428 -0.42892,1.64331 z"
         style="text-align:center;text-anchor:middle;fill:#e60000;fill-opacity:1;stroke-width:0.26458335"
         id="path917" />
      <path
         d="m 136.40705,203.2076 v 0.46508 h -4.37183 q 0.062,0.98186 0.58911,1.49862 0.53227,0.5116 1.47795,0.5116 0.54777,0 1.05936,-0.13436 0.51677,-0.13436 1.0232,-0.40308 v 0.89917 q -0.5116,0.21704 -1.04903,0.33073 -0.53744,0.11369 -1.09038,0.11369 -1.38493,0 -2.19625,-0.80615 -0.80615,-0.80616 -0.80615,-2.18075 0,-1.4211 0.76481,-2.25309 0.76998,-0.83716 2.07223,-0.83716 1.16789,0 1.84485,0.75448 0.68213,0.7493 0.68213,2.04122 z m -0.95085,-0.27906 q -0.0103,-0.78031 -0.43925,-1.2454 -0.42375,-0.46509 -1.12655,-0.46509 -0.79581,0 -1.2764,0.44959 -0.47543,0.44958 -0.54777,1.26607 z"
         style="text-align:center;text-anchor:middle;fill:#e60000;fill-opacity:1;stroke-width:0.26458335"
         id="path919" />
      <path
         d="m 23.953953,216.43676 v 0.46509 h -4.371827 q 0.06201,0.98185 0.589112,1.49862 0.532267,0.51159 1.477946,0.51159 0.54777,0 1.059367,-0.13435 0.516764,-0.13436 1.023193,-0.40308 v 0.89917 q -0.511597,0.21704 -1.049032,0.33073 -0.537434,0.11369 -1.090372,0.11369 -1.384929,0 -2.196249,-0.80616 -0.806152,-0.80615 -0.806152,-2.18074 0,-1.4211 0.764811,-2.25309 0.769979,-0.83716 2.072225,-0.83716 1.167888,0 1.844849,0.75447 0.682129,0.74931 0.682129,2.04122 z m -0.950847,-0.27905 q -0.01033,-0.78031 -0.439249,-1.2454 -0.423747,-0.46509 -1.126547,-0.46509 -0.795817,0 -1.276408,0.44959 -0.475423,0.44958 -0.54777,1.26607 z"
         style="text-align:center;text-anchor:middle;fill:#e60000;fill-opacity:1;stroke-width:0.26458335"
         id="path921" />
      <path
         d="m 30.325657,216.07503 v 3.49333 h -0.950846 v -3.46233 q 0,-0.82165 -0.320394,-1.2299 -0.320394,-0.40824 -0.961182,-0.40824 -0.769979,0 -1.214396,0.49093 -0.444417,0.49092 -0.444417,1.33842 v 3.27112 h -0.956014 v -5.78777 h 0.956014 v 0.89917 q 0.341064,-0.52193 0.800984,-0.78031 0.465088,-0.25838 1.069703,-0.25838 0.997355,0 1.508952,0.62012 0.511596,0.61494 0.511596,1.81384 z"
         style="text-align:center;text-anchor:middle;fill:#e60000;fill-opacity:1;stroke-width:0.26458335"
         id="path923" />
      <path
         d="m 39.751439,214.0028 v 0.88884 q -0.403076,-0.22221 -0.81132,-0.33073 -0.403077,-0.11369 -0.816488,-0.11369 -0.925008,0 -1.436605,0.58911 -0.511597,0.58395 -0.511597,1.64331 0,1.05937 0.511597,1.64848 0.511597,0.58394 1.436605,0.58394 0.413411,0 0.816488,-0.10852 0.408244,-0.11368 0.81132,-0.33589 v 0.8785 q -0.397909,0.18603 -0.826823,0.27905 -0.423747,0.093 -0.904338,0.093 -1.307414,0 -2.077393,-0.82166 -0.769978,-0.82165 -0.769978,-2.21692 0,-1.41593 0.775146,-2.22725 0.780314,-0.81132 2.134237,-0.81132 0.43925,0 0.857829,0.093 0.418579,0.0879 0.81132,0.26871 z"
         style="text-align:center;text-anchor:middle;fill:#e60000;fill-opacity:1;stroke-width:0.26458335"
         id="path925" />
      <path
         d="m 43.647843,214.44722 q -0.764811,0 -1.209229,0.59945 -0.444417,0.59428 -0.444417,1.63297 0,1.0387 0.43925,1.63815 0.444417,0.59427 1.214396,0.59427 0.759643,0 1.204061,-0.59944 0.444417,-0.59945 0.444417,-1.63298 0,-1.02836 -0.444417,-1.62781 -0.444418,-0.60461 -1.204061,-0.60461 z m 0,-0.80615 q 1.240234,0 1.948201,0.80615 0.707968,0.80615 0.707968,2.23242 0,1.4211 -0.707968,2.23242 -0.707967,0.80616 -1.948201,0.80616 -1.245402,0 -1.953369,-0.80616 -0.7028,-0.81132 -0.7028,-2.23242 0,-1.42627 0.7028,-2.23242 0.707967,-0.80615 1.953369,-0.80615 z"
         style="text-align:center;text-anchor:middle;fill:#e60000;fill-opacity:1;stroke-width:0.26458335"
         id="path927" />
      <path
         d="m 47.781958,217.28426 v -3.50367 h 0.950846 v 3.46749 q 0,0.82166 0.320394,1.23507 0.320394,0.40824 0.961182,0.40824 0.769979,0 1.214396,-0.49092 0.449585,-0.49093 0.449585,-1.33842 v -3.28146 h 0.950847 v 5.78777 h -0.950847 v -0.88884 q -0.346232,0.5271 -0.806152,0.78548 -0.454753,0.25322 -1.059367,0.25322 -0.997355,0 -1.51412,-0.62012 -0.516764,-0.62012 -0.516764,-1.81384 z m 2.392619,-3.64319 z"
         style="text-align:center;text-anchor:middle;fill:#e60000;fill-opacity:1;stroke-width:0.26458335"
         id="path929" />
      <path
         d="m 57.941543,214.66943 q -0.160196,-0.093 -0.351399,-0.13436 -0.186035,-0.0465 -0.413412,-0.0465 -0.806152,0 -1.240234,0.5271 -0.428915,0.52193 -0.428915,1.50379 v 3.04891 h -0.956014 v -5.78777 h 0.956014 v 0.89917 q 0.299724,-0.5271 0.780315,-0.78031 0.48059,-0.25838 1.167887,-0.25838 0.09819,0 0.217041,0.0155 0.118856,0.0103 0.26355,0.0362 z"
         style="text-align:center;text-anchor:middle;fill:#e60000;fill-opacity:1;stroke-width:0.26458335"
         id="path931" />
      <path
         d="m 62.628598,213.95113 v 0.89917 q -0.403076,-0.20671 -0.837158,-0.31006 -0.434082,-0.10335 -0.89917,-0.10335 -0.707967,0 -1.064534,0.21704 -0.3514,0.21704 -0.3514,0.65112 0,0.33073 0.253214,0.52193 0.253215,0.18604 1.018026,0.35657 l 0.325562,0.0724 q 1.012858,0.21704 1.436605,0.61495 0.428914,0.39274 0.428914,1.1007 0,0.80616 -0.640788,1.27641 -0.63562,0.47026 -1.751831,0.47026 -0.465088,0 -0.971517,-0.093 -0.501261,-0.0879 -1.059367,-0.26872 v -0.98185 q 0.5271,0.27388 1.038697,0.41341 0.511596,0.13436 1.012858,0.13436 0.671793,0 1.033528,-0.22738 0.361735,-0.23254 0.361735,-0.65112 0,-0.38757 -0.263549,-0.59428 -0.258383,-0.2067 -1.14205,-0.39791 l -0.330729,-0.0775 q -0.883667,-0.18604 -1.276408,-0.56844 -0.392741,-0.38758 -0.392741,-1.05937 0,-0.81649 0.578776,-1.2609 0.578776,-0.44442 1.643311,-0.44442 0.5271,0 0.992188,0.0775 0.465088,0.0775 0.857828,0.23255 z"
         style="text-align:center;text-anchor:middle;fill:#e60000;fill-opacity:1;stroke-width:0.26458335"
         id="path933" />
      <path
         d="m 71.625464,214.65909 v -3.13159 h 0.950846 v 8.04086 h -0.950846 v -0.86817 q -0.299723,0.51677 -0.759644,0.76998 -0.454752,0.24805 -1.09554,0.24805 -1.049032,0 -1.71049,-0.83716 -0.656291,-0.83716 -0.656291,-2.20142 0,-1.36426 0.656291,-2.20141 0.661458,-0.83716 1.71049,-0.83716 0.640788,0 1.09554,0.25321 0.459921,0.24805 0.759644,0.76481 z m -3.240112,2.02055 q 0,1.04903 0.428914,1.64848 0.434082,0.59428 1.188558,0.59428 0.754476,0 1.188558,-0.59428 0.434082,-0.59945 0.434082,-1.64848 0,-1.04903 -0.434082,-1.64331 -0.434082,-0.59944 -1.188558,-0.59944 -0.754476,0 -1.188558,0.59944 -0.428914,0.59428 -0.428914,1.64331 z"
         style="text-align:center;text-anchor:middle;fill:#e60000;fill-opacity:1;stroke-width:0.26458335"
         id="path935" />
      <path
         d="m 75.434018,211.85306 v 2.86805 h -0.878499 v -2.86805 z"
         style="text-align:center;text-anchor:middle;fill:#e60000;fill-opacity:1;stroke-width:0.26458335"
         id="path937" />
      <path
         d="m 82.394833,216.43676 v 0.46509 h -4.371827 q 0.06201,0.98185 0.589112,1.49862 0.532267,0.51159 1.477946,0.51159 0.54777,0 1.059366,-0.13435 0.516765,-0.13436 1.023194,-0.40308 v 0.89917 q -0.511597,0.21704 -1.049032,0.33073 -0.537435,0.11369 -1.090373,0.11369 -1.384928,0 -2.196248,-0.80616 -0.806152,-0.80615 -0.806152,-2.18074 0,-1.4211 0.764811,-2.25309 0.769979,-0.83716 2.072225,-0.83716 1.167887,0 1.844849,0.75447 0.682129,0.74931 0.682129,2.04122 z m -0.950847,-0.27905 q -0.01033,-0.78031 -0.43925,-1.2454 -0.423746,-0.46509 -1.126546,-0.46509 -0.795817,0 -1.276408,0.44959 -0.475423,0.44958 -0.54777,1.26607 z"
         style="text-align:center;text-anchor:middle;fill:#e60000;fill-opacity:1;stroke-width:0.26458335"
         id="path939" />
      <path
         d="m 88.766537,216.07503 v 3.49333 H 87.81569 v -3.46233 q 0,-0.82165 -0.320394,-1.2299 -0.320394,-0.40824 -0.961181,-0.40824 -0.769979,0 -1.214397,0.49093 -0.444417,0.49092 -0.444417,1.33842 v 3.27112 h -0.956014 v -5.78777 h 0.956014 v 0.89917 q 0.341065,-0.52193 0.800985,-0.78031 0.465088,-0.25838 1.069702,-0.25838 0.997355,0 1.508952,0.62012 0.511597,0.61494 0.511597,1.81384 z"
         style="text-align:center;text-anchor:middle;fill:#e60000;fill-opacity:1;stroke-width:0.26458335"
         id="path941" />
      <path
         d="m 94.016865,214.66943 q -0.160197,-0.093 -0.3514,-0.13436 -0.186035,-0.0465 -0.413412,-0.0465 -0.806152,0 -1.240234,0.5271 -0.428914,0.52193 -0.428914,1.50379 v 3.04891 H 90.62689 v -5.78777 h 0.956015 v 0.89917 q 0.299723,-0.5271 0.780314,-0.78031 0.480591,-0.25838 1.167887,-0.25838 0.09819,0 0.217041,0.0155 0.118856,0.0103 0.26355,0.0362 z"
         style="text-align:center;text-anchor:middle;fill:#e60000;fill-opacity:1;stroke-width:0.26458335"
         id="path943" />
      <path
         d="m 99.732281,216.43676 v 0.46509 h -4.371827 q 0.06201,0.98185 0.589112,1.49862 0.532267,0.51159 1.477946,0.51159 0.54777,0 1.059367,-0.13435 0.516764,-0.13436 1.023193,-0.40308 v 0.89917 q -0.511597,0.21704 -1.049032,0.33073 -0.537435,0.11369 -1.090372,0.11369 -1.384929,0 -2.196249,-0.80616 -0.806152,-0.80615 -0.806152,-2.18074 0,-1.4211 0.764811,-2.25309 0.769979,-0.83716 2.072225,-0.83716 1.167887,0 1.844849,0.75447 0.682129,0.74931 0.682129,2.04122 z m -0.950847,-0.27905 q -0.01033,-0.78031 -0.439249,-1.2454 -0.423747,-0.46509 -1.126547,-0.46509 -0.795817,0 -1.276408,0.44959 -0.475423,0.44958 -0.54777,1.26607 z"
         style="text-align:center;text-anchor:middle;fill:#e60000;fill-opacity:1;stroke-width:0.26458335"
         id="path945" />
      <path
         d="m 105.10146,216.6073 q 0,-1.03353 -0.42891,-1.60197 -0.42375,-0.56844 -1.19373,-0.56844 -0.76481,0 -1.19372,0.56844 -0.42375,0.56844 -0.42375,1.60197 0,1.02836 0.42375,1.5968 0.42891,0.56844 1.19372,0.56844 0.76998,0 1.19373,-0.56844 0.42891,-0.56844 0.42891,-1.5968 z m 0.95085,2.24275 q 0,1.47795 -0.65629,2.19625 -0.65629,0.72347 -2.01022,0.72347 -0.50126,0 -0.94567,-0.0775 -0.44442,-0.0724 -0.863,-0.22738 v -0.92501 q 0.41858,0.22738 0.82682,0.3359 0.40825,0.10852 0.83199,0.10852 0.93535,0 1.40043,-0.49093 0.46509,-0.48576 0.46509,-1.47278 v -0.47025 q -0.29455,0.5116 -0.75447,0.76481 -0.45992,0.25322 -1.10071,0.25322 -1.06454,0 -1.71566,-0.81132 -0.65112,-0.81132 -0.65112,-2.14974 0,-1.34359 0.65112,-2.15491 0.65112,-0.81132 1.71566,-0.81132 0.64079,0 1.10071,0.25321 0.45992,0.25322 0.75447,0.76481 v -0.8785 h 0.95085 z"
         style="text-align:center;text-anchor:middle;fill:#e60000;fill-opacity:1;stroke-width:0.26458335"
         id="path947" />
      <path
         d="m 108.01084,213.78059 h 0.95085 v 5.78777 h -0.95085 z m 0,-2.25309 h 0.95085 v 1.20406 h -0.95085 z"
         style="text-align:center;text-anchor:middle;fill:#e60000;fill-opacity:1;stroke-width:0.26458335"
         id="path949" />
      <path
         d="m 114.64093,213.95113 v 0.89917 q -0.40307,-0.20671 -0.83716,-0.31006 -0.43408,-0.10335 -0.89917,-0.10335 -0.70796,0 -1.06453,0.21704 -0.3514,0.21704 -0.3514,0.65112 0,0.33073 0.25321,0.52193 0.25322,0.18604 1.01803,0.35657 l 0.32556,0.0724 q 1.01286,0.21704 1.43661,0.61495 0.42891,0.39274 0.42891,1.1007 0,0.80616 -0.64079,1.27641 -0.63562,0.47026 -1.75183,0.47026 -0.46509,0 -0.97152,-0.093 -0.50126,-0.0879 -1.05936,-0.26872 v -0.98185 q 0.5271,0.27388 1.03869,0.41341 0.5116,0.13436 1.01286,0.13436 0.6718,0 1.03353,-0.22738 0.36174,-0.23254 0.36174,-0.65112 0,-0.38757 -0.26355,-0.59428 -0.25839,-0.2067 -1.14205,-0.39791 l -0.33073,-0.0775 q -0.88367,-0.18604 -1.27641,-0.56844 -0.39274,-0.38758 -0.39274,-1.05937 0,-0.81649 0.57877,-1.2609 0.57878,-0.44442 1.64331,-0.44442 0.5271,0 0.99219,0.0775 0.46509,0.0775 0.85783,0.23255 z"
         style="text-align:center;text-anchor:middle;fill:#e60000;fill-opacity:1;stroke-width:0.26458335"
         id="path951" />
      <path
         d="m 117.40562,212.13728 v 1.64331 h 1.95853 v 0.73898 h -1.95853 v 3.14192 q 0,0.70797 0.1912,0.90951 0.19637,0.20154 0.79065,0.20154 h 0.97668 v 0.79582 h -0.97668 q -1.10071,0 -1.51929,-0.40825 -0.41858,-0.41341 -0.41858,-1.49862 v -3.14192 h -0.69763 v -0.73898 h 0.69763 v -1.64331 z"
         style="text-align:center;text-anchor:middle;fill:#e60000;fill-opacity:1;stroke-width:0.26458335"
         id="path953" />
      <path
         d="m 123.96852,214.66943 q -0.16019,-0.093 -0.35139,-0.13436 -0.18604,-0.0465 -0.41342,-0.0465 -0.80615,0 -1.24023,0.5271 -0.42892,0.52193 -0.42892,1.50379 v 3.04891 h -0.95601 v -5.78777 h 0.95601 v 0.89917 q 0.29973,-0.5271 0.78032,-0.78031 0.48059,-0.25838 1.16789,-0.25838 0.0982,0 0.21704,0.0155 0.11885,0.0103 0.26355,0.0362 z"
         style="text-align:center;text-anchor:middle;fill:#e60000;fill-opacity:1;stroke-width:0.26458335"
         id="path955" />
      <path
         d="m 129.68394,216.43676 v 0.46509 h -4.37183 q 0.062,0.98185 0.58912,1.49862 0.53226,0.51159 1.47794,0.51159 0.54777,0 1.05937,-0.13435 0.51676,-0.13436 1.02319,-0.40308 v 0.89917 q -0.51159,0.21704 -1.04903,0.33073 -0.53743,0.11369 -1.09037,0.11369 -1.38493,0 -2.19625,-0.80616 -0.80615,-0.80615 -0.80615,-2.18074 0,-1.4211 0.76481,-2.25309 0.76998,-0.83716 2.07222,-0.83716 1.16789,0 1.84485,0.75447 0.68213,0.74931 0.68213,2.04122 z m -0.95085,-0.27905 q -0.0103,-0.78031 -0.43925,-1.2454 -0.42374,-0.46509 -1.12654,-0.46509 -0.79582,0 -1.27641,0.44959 -0.47542,0.44958 -0.54777,1.26607 z"
         style="text-align:center;text-anchor:middle;fill:#e60000;fill-opacity:1;stroke-width:0.26458335"
         id="path957" />
      <path
         d="m 135.75075,214.89164 q 0.35657,-0.64079 0.85267,-0.94568 0.49609,-0.30489 1.16788,-0.30489 0.90434,0 1.39527,0.63562 0.49092,0.63045 0.49092,1.79834 v 3.49333 h -0.95601 v -3.46233 q 0,-0.83199 -0.29456,-1.23506 -0.29455,-0.40308 -0.89917,-0.40308 -0.73897,0 -1.16788,0.49093 -0.42892,0.49092 -0.42892,1.33842 v 3.27112 h -0.95601 v -3.46233 q 0,-0.83715 -0.29456,-1.23506 -0.29455,-0.40308 -0.9095,-0.40308 -0.72864,0 -1.15756,0.49609 -0.42891,0.49093 -0.42891,1.33326 v 3.27112 h -0.95601 v -5.78777 h 0.95601 v 0.89917 q 0.32556,-0.53226 0.78031,-0.78548 0.45476,-0.25321 1.08004,-0.25321 0.63045,0 1.0697,0.32039 0.44442,0.3204 0.65629,0.93018 z"
         style="text-align:center;text-anchor:middle;fill:#e60000;fill-opacity:1;stroke-width:0.26458335"
         id="path959" />
      <path
         d="m 146.50462,216.43676 v 0.46509 h -4.37183 q 0.062,0.98185 0.58911,1.49862 0.53227,0.51159 1.47795,0.51159 0.54777,0 1.05937,-0.13435 0.51676,-0.13436 1.02319,-0.40308 v 0.89917 q -0.5116,0.21704 -1.04903,0.33073 -0.53744,0.11369 -1.09037,0.11369 -1.38493,0 -2.19625,-0.80616 -0.80615,-0.80615 -0.80615,-2.18074 0,-1.4211 0.76481,-2.25309 0.76998,-0.83716 2.07222,-0.83716 1.16789,0 1.84485,0.75447 0.68213,0.74931 0.68213,2.04122 z m -0.95085,-0.27905 q -0.0103,-0.78031 -0.43925,-1.2454 -0.42374,-0.46509 -1.12654,-0.46509 -0.79582,0 -1.27641,0.44959 -0.47542,0.44958 -0.54777,1.26607 z"
         style="text-align:center;text-anchor:middle;fill:#e60000;fill-opacity:1;stroke-width:0.26458335"
         id="path961" />
      <path
         d="m 152.87633,216.07503 v 3.49333 h -0.95085 v -3.46233 q 0,-0.82165 -0.32039,-1.2299 -0.32039,-0.40824 -0.96118,-0.40824 -0.76998,0 -1.2144,0.49093 -0.44441,0.49092 -0.44441,1.33842 v 3.27112 h -0.95602 v -5.78777 h 0.95602 v 0.89917 q 0.34106,-0.52193 0.80098,-0.78031 0.46509,-0.25838 1.0697,-0.25838 0.99736,0 1.50895,0.62012 0.5116,0.61494 0.5116,1.81384 z"
         style="text-align:center;text-anchor:middle;fill:#e60000;fill-opacity:1;stroke-width:0.26458335"
         id="path963" />
      <path
         d="m 155.71336,212.13728 v 1.64331 h 1.95854 v 0.73898 h -1.95854 v 3.14192 q 0,0.70797 0.1912,0.90951 0.19638,0.20154 0.79065,0.20154 h 0.97669 v 0.79582 h -0.97669 q -1.1007,0 -1.51928,-0.40825 -0.41858,-0.41341 -0.41858,-1.49862 v -3.14192 h -0.69763 v -0.73898 h 0.69763 v -1.64331 z"
         style="text-align:center;text-anchor:middle;fill:#e60000;fill-opacity:1;stroke-width:0.26458335"
         id="path965" />
    </g>
  </g>
</svg>
