<?xml version="1.0" encoding="UTF-8" standalone="no"?>
<svg
   xmlns:dc="http://purl.org/dc/elements/1.1/"
   xmlns:cc="http://creativecommons.org/ns#"
   xmlns:rdf="http://www.w3.org/1999/02/22-rdf-syntax-ns#"
   xmlns:svg="http://www.w3.org/2000/svg"
   xmlns="http://www.w3.org/2000/svg"
   height="600"
   width="600"
   xml:space="preserve"
   viewBox="0 0 600 600"
   y="0px"
   x="0px"
   id="Layer_1"
   version="1.1">


<g
   transform="translate(0,88.001)"
   id="g124">
</g>
<g
   transform="translate(0,88.001)"
   id="g126">
</g>
<g
   transform="translate(0,88.001)"
   id="g128">
</g>
<g
   transform="translate(0,88.001)"
   id="g130">
</g>
<g
   transform="translate(0,88.001)"
   id="g132">
</g>
<g
   transform="translate(0,88.001)"
   id="g134">
</g>
<g
   transform="translate(0,88.001)"
   id="g136">
</g>
<g
   transform="translate(0,88.001)"
   id="g138">
</g>
<g
   transform="translate(0,88.001)"
   id="g140">
</g>
<g
   transform="translate(0,88.001)"
   id="g142">
</g>
<g
   transform="translate(0,88.001)"
   id="g144">
</g>
<g
   transform="translate(0,88.001)"
   id="g146">
</g>
<g
   transform="translate(0,88.001)"
   id="g148">
</g>
<g
   transform="translate(0,88.001)"
   id="g150">
</g>
<g
   transform="translate(0,88.001)"
   id="g152">
</g>
<rect
   ry="115.40129"
   y="9.2775574"
   x="9.2775574"
   height="581.44489"
   width="581.44489"
   id="rect2065"
   style="opacity:0.98000004;fill:none;fill-opacity:1;stroke:#e6e6e6;stroke-width:18.555;stroke-linecap:round;stroke-miterlimit:4;stroke-dasharray:none;stroke-opacity:1" /><g
   id="text988"
   style="font-style:normal;font-variant:normal;font-weight:normal;font-stretch:normal;font-size:478.6000061px;line-height:1.25;font-family:sans-serif;-inkscape-font-specification:'sans-serif, Normal';font-variant-ligatures:normal;font-variant-caps:normal;font-variant-numeric:normal;font-feature-settings:normal;text-align:start;letter-spacing:0px;word-spacing:0px;writing-mode:lr-tb;text-anchor:start;fill:#e6e6e6;fill-opacity:1;stroke:none;stroke-width:2.49269342"
   transform="scale(1.0314104,0.96954615)"
   aria-label="9"><path
     id="path1191"
     style=""
     d="m 188.06812,455.57914 v -42.99922 q 17.76054,8.4129 35.98847,12.85303 18.22793,4.44014 35.75479,4.44014 46.73828,0 71.27588,-31.31465 24.77129,-31.54834 28.27666,-95.57979 -13.5541,20.09747 -34.35264,30.84727 -20.79853,10.7498 -46.03721,10.7498 -52.34687,0 -82.96045,-31.54834 -30.37988,-31.78203 -30.37988,-86.69951 0,-53.74902 31.78203,-86.23213 31.78203,-32.4831 84.59629,-32.4831 60.52608,0 92.30811,46.50459 32.01572,46.2709 32.01572,134.60625 0,82.49307 -39.26015,131.80195 -39.02647,49.0752 -105.16114,49.0752 -17.76055,0 -35.98848,-3.50537 -18.22793,-3.50537 -37.858,-10.51612 z m 93.94394,-147.92666 q 31.78203,0 50.24366,-21.7333 18.69531,-21.7333 18.69531,-59.59131 0,-37.62432 -18.69531,-59.35762 -18.46163,-21.96699 -50.24366,-21.96699 -31.78203,0 -50.47734,21.96699 -18.46162,21.7333 -18.46162,59.35762 0,37.85801 18.46162,59.59131 18.69531,21.7333 50.47734,21.7333 z" /></g>
</svg>