<?xml version="1.0" encoding="UTF-8" standalone="no"?>
<!-- Generator: Adobe Illustrator 19.0.0, SVG Export Plug-In . SVG Version: 6.00 Build 0)  -->

<svg
   xmlns:dc="http://purl.org/dc/elements/1.1/"
   xmlns:cc="http://creativecommons.org/ns#"
   xmlns:rdf="http://www.w3.org/1999/02/22-rdf-syntax-ns#"
   xmlns:svg="http://www.w3.org/2000/svg"
   xmlns="http://www.w3.org/2000/svg"
   xmlns:sodipodi="http://sodipodi.sourceforge.net/DTD/sodipodi-0.dtd"
   xmlns:inkscape="http://www.inkscape.org/namespaces/inkscape"
   version="1.1"
   id="Layer_1"
   x="0px"
   y="0px"
   viewBox="0 0 600 600"
   xml:space="preserve"
   sodipodi:docname="right.svg"
   width="600"
   height="600"
   inkscape:version="0.92.5 (2060ec1f9f, 2020-04-08)"
   inkscape:export-xdpi="32"
   inkscape:export-ydpi="32"><metadata
   id="metadata929"><rdf:RDF><cc:Work
       rdf:about=""><dc:format>image/svg+xml</dc:format><dc:type
         rdf:resource="http://purl.org/dc/dcmitype/StillImage" /><dc:title></dc:title></cc:Work></rdf:RDF></metadata><defs
   id="defs927" />
   
   <sodipodi:namedview
   pagecolor="#ffffff"
   bordercolor="#666666"
   borderopacity="1"
   objecttolerance="10"
   gridtolerance="10"
   guidetolerance="10"
   inkscape:pageopacity="0"
   inkscape:pageshadow="2"
   inkscape:window-width="1920"
   inkscape:window-height="1031"
   id="namedview155"
   showgrid="false"
   inkscape:zoom="0.78666667"
   inkscape:cx="401.69492"
   inkscape:cy="387.65142"
   inkscape:window-x="0"
   inkscape:window-y="25"
   inkscape:window-maximized="1"
   inkscape:current-layer="Layer_1" />



<g
   id="g124"
   transform="translate(0,88.001)">
</g>
<g
   id="g126"
   transform="translate(0,88.001)">
</g>
<g
   id="g128"
   transform="translate(0,88.001)">
</g>
<g
   id="g130"
   transform="translate(0,88.001)">
</g>
<g
   id="g132"
   transform="translate(0,88.001)">
</g>
<g
   id="g134"
   transform="translate(0,88.001)">
</g>
<g
   id="g136"
   transform="translate(0,88.001)">
</g>
<g
   id="g138"
   transform="translate(0,88.001)">
</g>
<g
   id="g140"
   transform="translate(0,88.001)">
</g>
<g
   id="g142"
   transform="translate(0,88.001)">
</g>
<g
   id="g144"
   transform="translate(0,88.001)">
</g>
<g
   id="g146"
   transform="translate(0,88.001)">
</g>
<g
   id="g148"
   transform="translate(0,88.001)">
</g>
<g
   id="g150"
   transform="translate(0,88.001)">
</g>
<g
   id="g152"
   transform="translate(0,88.001)">
</g>
<rect
   style="opacity:0.98000004;fill:none;fill-opacity:1;stroke:#e6e6e6;stroke-width:18.555;stroke-linecap:round;stroke-miterlimit:4;stroke-dasharray:none;stroke-opacity:1"
   id="rect2065"
   width="581.44489"
   height="581.44489"
   x="9.2775574"
   y="9.2775574"
   ry="115.40129" />
<path
   inkscape:connector-curvature="0"
   d="M 90.880923,302.54144 A 15.253901,14.904773 0 0 1 106.13482,287.63667 H 465.91338 L 369.9053,193.85582 a 15.27317,14.9236 0 0 1 21.59949,-21.10515 l 122.03118,119.23819 a 15.253901,14.904773 0 0 1 0,21.10515 L 391.50479,432.33219 A 15.27317,14.9236 0 0 1 369.9053,411.22703 L 465.91338,317.4462 H 106.13482 A 15.253901,14.904773 0 0 1 90.880923,302.54144 Z"
   id="path2802"
   style="color:#ff0000;fill:#e6e6e6;fill-opacity:1;fill-rule:evenodd;stroke-width:30.15665245" /></svg>