<?xml version="1.0" encoding="UTF-8" standalone="no"?>
<!-- Generator: Adobe Illustrator 19.0.0, SVG Export Plug-In . SVG Version: 6.00 Build 0)  -->

<svg
   xmlns:dc="http://purl.org/dc/elements/1.1/"
   xmlns:cc="http://creativecommons.org/ns#"
   xmlns:rdf="http://www.w3.org/1999/02/22-rdf-syntax-ns#"
   xmlns:svg="http://www.w3.org/2000/svg"
   xmlns="http://www.w3.org/2000/svg"
   xmlns:sodipodi="http://sodipodi.sourceforge.net/DTD/sodipodi-0.dtd"
   xmlns:inkscape="http://www.inkscape.org/namespaces/inkscape"
   version="1.1"
   id="Layer_1"
   x="0px"
   y="0px"
   viewBox="0 0 600 600"
   xml:space="preserve"
   sodipodi:docname="TV_tools.svg"
   width="600"
   height="600"
   inkscape:version="0.92.5 (2060ec1f9f, 2020-04-08)"
   inkscape:export-xdpi="32"
   inkscape:export-ydpi="32"><metadata
   id="metadata929"><rdf:RDF><cc:Work
       rdf:about=""><dc:format>image/svg+xml</dc:format><dc:type
         rdf:resource="http://purl.org/dc/dcmitype/StillImage" /><dc:title></dc:title></cc:Work></rdf:RDF></metadata><defs
   id="defs927" />
   
   <sodipodi:namedview
   pagecolor="#ffffff"
   bordercolor="#666666"
   borderopacity="1"
   objecttolerance="10"
   gridtolerance="10"
   guidetolerance="10"
   inkscape:pageopacity="0"
   inkscape:pageshadow="2"
   inkscape:window-width="1920"
   inkscape:window-height="1031"
   id="namedview155"
   showgrid="false"
   inkscape:zoom="0.78666667"
   inkscape:cx="-88.983042"
   inkscape:cy="336.80396"
   inkscape:window-x="0"
   inkscape:window-y="25"
   inkscape:window-maximized="1"
   inkscape:current-layer="Layer_1" />



<g
   id="g124"
   transform="translate(0,88.001)">
</g>
<g
   id="g126"
   transform="translate(0,88.001)">
</g>
<g
   id="g128"
   transform="translate(0,88.001)">
</g>
<g
   id="g130"
   transform="translate(0,88.001)">
</g>
<g
   id="g132"
   transform="translate(0,88.001)">
</g>
<g
   id="g134"
   transform="translate(0,88.001)">
</g>
<g
   id="g136"
   transform="translate(0,88.001)">
</g>
<g
   id="g138"
   transform="translate(0,88.001)">
</g>
<g
   id="g140"
   transform="translate(0,88.001)">
</g>
<g
   id="g142"
   transform="translate(0,88.001)">
</g>
<g
   id="g144"
   transform="translate(0,88.001)">
</g>
<g
   id="g146"
   transform="translate(0,88.001)">
</g>
<g
   id="g148"
   transform="translate(0,88.001)">
</g>
<g
   id="g150"
   transform="translate(0,88.001)">
</g>
<g
   id="g152"
   transform="translate(0,88.001)">
</g>
<rect
   style="opacity:0.98000004;fill:none;fill-opacity:1;stroke:#e6e6e6;stroke-width:18.555;stroke-linecap:round;stroke-miterlimit:4;stroke-dasharray:none;stroke-opacity:1"
   id="rect2065"
   width="581.44489"
   height="581.44489"
   x="9.2775574"
   y="9.2775574"
   ry="115.40129" />
<text
   xml:space="preserve"
   style="font-style:normal;font-variant:normal;font-weight:normal;font-stretch:normal;font-size:133.33332825px;line-height:1.25;font-family:sans-serif;-inkscape-font-specification:'sans-serif, Normal';font-variant-ligatures:normal;font-variant-caps:normal;font-variant-numeric:normal;font-feature-settings:normal;text-align:start;letter-spacing:0px;word-spacing:0px;writing-mode:lr-tb;text-anchor:start;fill:#e6e6e6;fill-opacity:1;stroke:none"
   x="82.627098"
   y="163.98305"
   id="text4055"><tspan
     sodipodi:role="line"
     id="tspan9767"
     x="82.627098"
     y="163.98305">TOOLS</tspan></text>


<text
   xml:space="preserve"
   style="font-style:normal;font-weight:normal;font-size:40px;line-height:1.25;font-family:sans-serif;letter-spacing:0px;word-spacing:0px;fill:#000000;fill-opacity:1;stroke:none"
   x="258.05084"
   y="311.44067"
   id="text4059"><tspan
     sodipodi:role="line"
     id="tspan4057"
     x="258.05084"
     y="346.8313" /></text>


<flowRoot
   xml:space="preserve"
   id="flowRoot4061"
   style="fill:black;fill-opacity:1;stroke:none;font-family:sans-serif;font-style:normal;font-weight:normal;font-size:192px;line-height:1.25;letter-spacing:0px;word-spacing:0px;"><flowRegion
     id="flowRegion4063"
     style="font-size:192px;"><rect
       id="rect4065"
       width="335.59323"
       height="218.64407"
       x="91.525421"
       y="160.16949"
       style="font-size:192px;" /></flowRegion><flowPara
     id="flowPara4067" /></flowRoot><path
   inkscape:connector-curvature="0"
   d="m 158.02385,196.63636 -21.15149,20.9133 46.53327,64.4339 a 21.151488,20.913307 0 0 0 17.23846,8.76267 h 1.48061 a 21.151488,20.913307 0 0 1 14.97525,6.12761 l 56.58025,55.94309 -55.35346,55.50391 a 63.51792,62.802661 0 0 0 -81.45438,60.18851 63.454465,62.739921 0 1 0 124.32845,-17.79723 l 56.13606,-54.73012 20.47463,20.24407 -6.4512,19.11476 a 21.151488,20.913307 0 0 0 5.11865,21.39432 l 70.98441,70.18507 a 21.151488,20.913307 0 0 0 29.90819,0 l 33.54626,-33.16852 a 21.151488,20.913307 0 0 0 0,-29.57141 l -70.98439,-70.18506 a 21.151488,20.913307 0 0 0 -21.63797,-5.06101 l -19.33246,6.37855 -20.30543,-20.07677 56.68599,-55.27388 a 63.560223,62.844488 0 0 0 79.95263,-60.58585 c 0,-5.62568 -0.7403,-11.08405 -2.15745,-16.24963 l -45.2642,44.77539 -37.18431,-7.61245 -7.69914,-36.74468 45.28534,-44.77538 a 63.454465,62.739921 0 0 0 -77.73172,76.96096 l -55.83993,56.00584 -56.45333,-55.77579 a 21.151488,20.913307 0 0 1 -6.19739,-14.78571 v -1.48484 a 21.151488,20.913307 0 0 0 -8.86247,-17.02343 z M 362.0511,419.27942 a 10.575744,10.456653 0 0 1 14.97525,0 l 63.45448,62.73991 a 10.589105,10.469864 0 0 1 -14.97525,14.80663 L 362.0511,434.08604 a 10.575744,10.456653 0 0 1 0,-14.80662 z m -161.72428,7.4033 9.96235,5.06102 11.18914,0.54376 6.07048,9.30642 9.41241,6.00211 0.54994,11.06314 5.11866,9.85018 -5.11866,9.85016 -0.54994,11.06314 -9.41241,6.00211 -6.07048,9.30643 -11.18914,0.54375 -9.96235,5.06102 -9.96234,-5.06102 -11.18914,-0.54375 -6.07049,-9.30643 -9.4124,-6.00211 -0.54994,-11.06314 -5.11866,-9.85016 5.11866,-9.85018 0.54994,-11.06314 9.4124,-6.00211 6.07049,-9.30642 11.18914,-0.54376 z"
   id="path9817"
   style="color:#ff0000;fill:#e6e6e6;fill-opacity:1;stroke-width:21.03206062" /></svg>