<?xml version="1.0" encoding="UTF-8" standalone="no"?>
<!-- Created with Inkscape (http://www.inkscape.org/) -->

<svg
   xmlns:dc="http://purl.org/dc/elements/1.1/"
   xmlns:cc="http://creativecommons.org/ns#"
   xmlns:rdf="http://www.w3.org/1999/02/22-rdf-syntax-ns#"
   xmlns:svg="http://www.w3.org/2000/svg"
   xmlns="http://www.w3.org/2000/svg"
   xmlns:sodipodi="http://sodipodi.sourceforge.net/DTD/sodipodi-0.dtd"
   xmlns:inkscape="http://www.inkscape.org/namespaces/inkscape"
   width="210mm"
   height="297mm"
   viewBox="0 0 210 297"
   version="1.1"
   id="svg901"
   inkscape:version="0.92.5 (0.92.5+68)"
   sodipodi:docname="verins_GD_vecto.svg">
  <defs
     id="defs895" />
  <sodipodi:namedview
     id="base"
     pagecolor="#ffffff"
     bordercolor="#666666"
     borderopacity="1.0"
     inkscape:pageopacity="0.0"
     inkscape:pageshadow="2"
     inkscape:zoom="1.080888"
     inkscape:cx="321.57711"
     inkscape:cy="457.25829"
     inkscape:document-units="mm"
     inkscape:current-layer="flowRoot5321"
     showgrid="false"
     inkscape:window-width="1366"
     inkscape:window-height="692"
     inkscape:window-x="0"
     inkscape:window-y="24"
     inkscape:window-maximized="1" />
  <metadata
     id="metadata898">
    <rdf:RDF>
      <cc:Work
         rdf:about="">
        <dc:format>image/svg+xml</dc:format>
        <dc:type
           rdf:resource="http://purl.org/dc/dcmitype/StillImage" />
        <dc:title></dc:title>
      </cc:Work>
    </rdf:RDF>
  </metadata>
  <g
     inkscape:label="Calque 1"
     inkscape:groupmode="layer"
     id="layer1">
    <g
       inkscape:groupmode="layer"
       id="layer2"
       inkscape:label="Layer 1" />
    <flowRoot
       xml:space="preserve"
       id="flowRoot1582"
       style="font-style:normal;font-variant:normal;font-weight:normal;font-stretch:normal;font-size:15px;line-height:125%;font-family:'Myriad Roman';-inkscape-font-specification:'Myriad Roman, Normal';text-align:start;letter-spacing:0.1px;word-spacing:0px;writing-mode:lr-tb;text-anchor:start;fill:#000000;fill-opacity:1;stroke:none;stroke-width:1px;stroke-linecap:butt;stroke-linejoin:miter;stroke-opacity:1"
       transform="scale(0.26458333)"><flowRegion
         id="flowRegion1584"><rect
           id="rect1586"
           width="191.34972"
           height="44.123829"
           x="519.57153"
           y="747.54407" /></flowRegion><flowPara
         id="flowPara1588" /></flowRoot>    <g
       id="g836">
      <g
         aria-label="G D"
         transform="matrix(0.26458333,0,0,0.26458333,-4.6040298,5.1155887)"
         style="font-style:normal;font-variant:normal;font-weight:normal;font-stretch:normal;font-size:15px;line-height:125%;font-family:'Myriad Roman';-inkscape-font-specification:'Myriad Roman, Normal';text-align:start;letter-spacing:0.1px;word-spacing:0px;writing-mode:lr-tb;text-anchor:start;fill:#000000;fill-opacity:1;stroke:none;stroke-width:1px;stroke-linecap:butt;stroke-linejoin:miter;stroke-opacity:1"
         id="flowRoot5321">
        <g
           id="g2700">
          <rect
             style="fill:#000000;fill-opacity:1;fill-rule:evenodd;stroke:#000000;stroke-width:1.00185764;stroke-linecap:butt;stroke-linejoin:miter;stroke-miterlimit:4;stroke-dasharray:none;stroke-opacity:1"
             id="rect1446"
             width="13.911283"
             height="60.569805"
             x="6.0480919"
             y="124.36409"
             rx="7.0324864"
             ry="1.5885701"
             transform="matrix(3.7055542,-0.74410814,1.0600358,3.6278303,17.401058,-19.334509)" />
          <g
             id="g1546"
             style="fill:#00fffb;fill-opacity:1;stroke-width:0.81393397;stroke-miterlimit:4;stroke-dasharray:none"
             transform="matrix(4.6435311,0,0,4.6435311,-203.50299,42.923151)">
            <path
               style="fill:#00fffb;fill-opacity:1;fill-rule:evenodd;stroke:#000000;stroke-width:3.77952766;stroke-linecap:butt;stroke-linejoin:miter;stroke-miterlimit:4;stroke-dasharray:none;stroke-opacity:1"
               d="m 488.1543,418.41016 c -2.93688,0.11373 -7.37844,2.21493 -11.71485,5.78906 l -18.16797,14.97461 c -6.3075,5.19873 -9.93539,11.48848 -8.13476,14.10351 l 99.99805,139.23438 c 3.89048,-0.35581 -1.75554,-0.0909 0,0 h 65.8789 c 3.34129,0 6.03125,-9.62071 6.03125,-21.57227 0,-11.95155 -2.68996,-21.57422 -6.03125,-21.57422 H 580.47266 L 491.07617,419.53516 c -0.56269,-0.8172 -1.58693,-1.1767 -2.92187,-1.125 z"
               transform="matrix(0.21535336,0,0,0.21535336,25.34359,29.430959)"
               id="rect1590"
               inkscape:connector-curvature="0"
               sodipodi:nodetypes="ccccccsssccc" />
          </g>
          <rect
             style="fill:#000000;fill-opacity:1;fill-rule:evenodd;stroke:#000000;stroke-width:1;stroke-linecap:butt;stroke-linejoin:miter;stroke-miterlimit:4;stroke-dasharray:none;stroke-opacity:1"
             id="rect1446-3"
             width="12.11522"
             height="44.418777"
             x="-175.58443"
             y="58.817402"
             rx="7.0536718"
             ry="1.595755"
             transform="matrix(0,-3.7795276,3.7795276,0,17.401058,-19.334509)" />
          <path
             id="path2685"
             style="font-style:normal;font-variant:normal;font-weight:bold;font-stretch:normal;font-size:37.33333206px;font-family:'Myriad Roman';-inkscape-font-specification:'Myriad Roman,  Bold'"
             d="m 582.79101,762.54557 q -2.625,1.27604 -5.45052,1.91406 -2.82552,0.63803 -5.83333,0.63803 -6.79948,0 -10.77344,-3.79167 -3.97395,-3.8099 -3.97395,-10.31771 0,-6.58073 4.04687,-10.35417 4.04688,-3.77343 11.08333,-3.77343 2.71615,0 5.19532,0.51041 2.49739,0.51042 4.70312,1.51302 v 5.63282 q -2.27865,-1.29427 -4.53906,-1.93229 -2.24219,-0.63803 -4.50261,-0.63803 -4.1927,0 -6.47135,2.35157 -2.26042,2.33333 -2.26042,6.6901 0,4.32031 2.1875,6.67188 2.1875,2.35156 6.21615,2.35156 1.09375,0 2.02344,-0.12761 0.94791,-0.14583 1.69531,-0.4375 v -5.28645 h -4.28385 v -4.70313 h 10.93749 z" />
          <path
             id="path2687"
             style="font-style:normal;font-variant:normal;font-weight:bold;font-stretch:normal;font-size:37.33333206px;font-family:'Myriad Roman';-inkscape-font-specification:'Myriad Roman,  Bold'"
             d="m 609.14987,742.65755 v 16.60677 h 2.51562 q 4.30209,0 6.5625,-2.13281 2.27865,-2.13281 2.27865,-6.19792 0,-4.04687 -2.26042,-6.16145 -2.26042,-2.11459 -6.58073,-2.11459 z m -7.01823,-5.30469 h 7.40104 q 6.19792,0 9.22396,0.89323 3.04427,0.875 5.21354,2.98959 1.91406,1.84114 2.84375,4.24739 0.92969,2.40625 0.92969,5.45052 0,3.08073 -0.92969,5.50521 -0.92969,2.40625 -2.84375,4.2474 -2.1875,2.11458 -5.25,3.00781 -3.0625,0.875 -9.1875,0.875 h -7.40104 z" />
        </g>
      </g>
    </g>
  </g>
</svg>
