<?xml version="1.0" encoding="UTF-8" standalone="no"?>
<!-- Generator: Adobe Illustrator 19.0.0, SVG Export Plug-In . SVG Version: 6.00 Build 0)  -->

<svg
   xmlns:dc="http://purl.org/dc/elements/1.1/"
   xmlns:cc="http://creativecommons.org/ns#"
   xmlns:rdf="http://www.w3.org/1999/02/22-rdf-syntax-ns#"
   xmlns:svg="http://www.w3.org/2000/svg"
   xmlns="http://www.w3.org/2000/svg"
   xmlns:sodipodi="http://sodipodi.sourceforge.net/DTD/sodipodi-0.dtd"
   xmlns:inkscape="http://www.inkscape.org/namespaces/inkscape"
   version="1.1"
   id="Layer_1"
   x="0px"
   y="0px"
   viewBox="0 0 600 600"
   xml:space="preserve"
   sodipodi:docname="button_6.svg"
   width="600"
   height="600"
   inkscape:version="0.92.5 (2060ec1f9f, 2020-04-08)"
   inkscape:export-xdpi="32"
   inkscape:export-ydpi="32">
   
   <sodipodi:namedview
   pagecolor="#ffffff"
   bordercolor="#666666"
   borderopacity="1"
   objecttolerance="10"
   gridtolerance="10"
   guidetolerance="10"
   inkscape:pageopacity="0"
   inkscape:pageshadow="2"
   inkscape:window-width="1920"
   inkscape:window-height="1031"
   id="namedview155"
   showgrid="false"
   inkscape:zoom="0.78666667"
   inkscape:cx="29.924699"
   inkscape:cy="387.65142"
   inkscape:window-x="0"
   inkscape:window-y="25"
   inkscape:window-maximized="1"
   inkscape:current-layer="Layer_1" />



<g
   id="g124"
   transform="translate(0,88.001)">
</g>
<g
   id="g126"
   transform="translate(0,88.001)">
</g>
<g
   id="g128"
   transform="translate(0,88.001)">
</g>
<g
   id="g130"
   transform="translate(0,88.001)">
</g>
<g
   id="g132"
   transform="translate(0,88.001)">
</g>
<g
   id="g134"
   transform="translate(0,88.001)">
</g>
<g
   id="g136"
   transform="translate(0,88.001)">
</g>
<g
   id="g138"
   transform="translate(0,88.001)">
</g>
<g
   id="g140"
   transform="translate(0,88.001)">
</g>
<g
   id="g142"
   transform="translate(0,88.001)">
</g>
<g
   id="g144"
   transform="translate(0,88.001)">
</g>
<g
   id="g146"
   transform="translate(0,88.001)">
</g>
<g
   id="g148"
   transform="translate(0,88.001)">
</g>
<g
   id="g150"
   transform="translate(0,88.001)">
</g>
<g
   id="g152"
   transform="translate(0,88.001)">
</g>
<rect
   style="opacity:0.98000004;fill:none;fill-opacity:1;stroke:#e6e6e6;stroke-width:18.555;stroke-linecap:round;stroke-miterlimit:4;stroke-dasharray:none;stroke-opacity:1"
   id="rect2065"
   width="581.44489"
   height="581.44489"
   x="9.2775574"
   y="9.2775574"
   ry="115.40129" /><g
   aria-label="6"
   transform="scale(1.0314104,0.96954615)"
   style="font-style:normal;font-variant:normal;font-weight:normal;font-stretch:normal;font-size:478.6000061px;line-height:1.25;font-family:sans-serif;-inkscape-font-specification:'sans-serif, Normal';font-variant-ligatures:normal;font-variant-caps:normal;font-variant-numeric:normal;font-feature-settings:normal;text-align:start;letter-spacing:0px;word-spacing:0px;writing-mode:lr-tb;text-anchor:start;fill:#e6e6e6;fill-opacity:1;stroke:none;stroke-width:2.49269342"
   id="text988"><path
     d="m 293.46294,269.56078 q -31.78203,0 -50.47734,21.7333 -18.46162,21.7333 -18.46162,59.59131 0,37.62432 18.46162,59.59131 18.69531,21.7333 50.47734,21.7333 31.78203,0 50.24365,-21.7333 18.69532,-21.96699 18.69532,-59.59131 0,-37.85801 -18.69532,-59.59131 -18.46162,-21.7333 -50.24365,-21.7333 z M 387.1732,121.63412 v 42.99922 q -17.76055,-8.41289 -35.98848,-12.85303 -17.99424,-4.44013 -35.75479,-4.44013 -46.73828,0 -71.50957,31.54834 -24.5376,31.54834 -28.04297,95.34609 13.7878,-20.33115 34.58633,-31.08096 20.79854,-10.98349 45.80352,-10.98349 52.58057,0 82.96045,32.01572 30.61357,31.78203 30.61357,86.69951 0,53.74903 -31.78203,86.23213 -31.78203,32.48311 -84.59629,32.48311 -60.52607,0 -92.5418,-46.2709 -32.01572,-46.50459 -32.01572,-134.60625 0,-82.72676 39.26016,-131.80196 39.26015,-49.30888 105.39482,-49.30888 17.76055,0 35.75479,3.50537 18.22793,3.50537 37.85801,10.51611 z"
     style=""
     id="path1119" /></g>
</svg>