<?xml version="1.0" encoding="UTF-8" standalone="no"?>
<!-- Generator: Adobe Illustrator 19.0.0, SVG Export Plug-In . SVG Version: 6.00 Build 0)  -->

<svg
   xmlns:dc="http://purl.org/dc/elements/1.1/"
   xmlns:cc="http://creativecommons.org/ns#"
   xmlns:rdf="http://www.w3.org/1999/02/22-rdf-syntax-ns#"
   xmlns:svg="http://www.w3.org/2000/svg"
   xmlns="http://www.w3.org/2000/svg"
   xmlns:sodipodi="http://sodipodi.sourceforge.net/DTD/sodipodi-0.dtd"
   xmlns:inkscape="http://www.inkscape.org/namespaces/inkscape"
   version="1.1"
   id="Layer_1"
   x="0px"
   y="0px"
   viewBox="0 0 600 600"
   xml:space="preserve"
   sodipodi:docname="button_wheelchair.svg.2021_10_20_00_02_12.0.svg"
   width="600"
   height="600"
   inkscape:version="0.92.5 (2060ec1f9f, 2020-04-08)"
   inkscape:export-filename="/home/braillon/inria/fabrikarium/MagicJoystick2020/Interface/html/button_wheelchair.png"
   inkscape:export-xdpi="32"
   inkscape:export-ydpi="32"><metadata
   id="metadata159"><rdf:RDF><cc:Work
       rdf:about=""><dc:format>image/svg+xml</dc:format><dc:type
         rdf:resource="http://purl.org/dc/dcmitype/StillImage" /><dc:title /></cc:Work></rdf:RDF></metadata><defs
   id="defs157" /><sodipodi:namedview
   pagecolor="#ffffff"
   bordercolor="#666666"
   borderopacity="1"
   objecttolerance="10"
   gridtolerance="10"
   guidetolerance="10"
   inkscape:pageopacity="0"
   inkscape:pageshadow="2"
   inkscape:window-width="1848"
   inkscape:window-height="1016"
   id="namedview155"
   showgrid="false"
   inkscape:zoom="0.78666667"
   inkscape:cx="373.78063"
   inkscape:cy="392.73617"
   inkscape:window-x="72"
   inkscape:window-y="27"
   inkscape:window-maximized="1"
   inkscape:current-layer="Layer_1" />


<g
   id="g2063"
   transform="translate(41.220258,-41.220258)"
   style="fill:#ffffff;fill-opacity:1"><g
     transform="translate(0,88.001)"
     id="g110"
     style="fill:#ffffff;fill-opacity:1">
	<g
   id="g108"
   style="fill:#ffffff;fill-opacity:1">
		<path
   inkscape:connector-curvature="0"
   id="path106"
   d="m 453.914,379.053 h -23.778 v -88.545 c 0,-17.333 -14.102,-31.434 -31.435,-31.434 h -63.907 c -29.257,-47.724 -81.903,-79.633 -141.867,-79.633 -2.455,0 -4.895,0.064 -7.323,0.17 l -1.871,-5.255 h 64.195 c 17.334,0 31.434,-14.102 31.434,-31.434 0,-17.334 -14.101,-31.435 -31.434,-31.435 H 161.356 L 129.111,20.895 C 123.301,4.568 105.286,-3.99 88.957,1.822 72.628,7.634 64.07,25.648 69.882,41.978 L 124.12,194.359 C 66.675,220.577 26.65,278.56 26.65,345.72 c 0,91.687 74.592,166.28 166.28,166.28 91.688,0 166.28,-74.592 166.28,-166.28 0,-8.073 -0.59,-16.009 -1.707,-23.778 h 9.766 v 88.545 c 0,17.334 14.102,31.435 31.434,31.435 h 55.212 c 17.334,0 31.435,-14.102 31.435,-31.435 -0.001,-17.332 -14.102,-31.434 -31.436,-31.434 z M 89.103,35.137 c -2.04,-5.733 0.964,-12.058 6.696,-14.097 5.735,-2.04 12.059,0.964 14.098,6.696 l 34.657,97.371 c 1.446,4.064 5.294,6.779 9.609,6.779 h 93.768 c 6.085,0 11.036,4.951 11.036,11.037 0,6.085 -4.951,11.036 -11.036,11.036 h -78.652 c -3.315,0 -6.422,1.611 -8.334,4.319 -1.911,2.708 -2.387,6.177 -1.275,9.3 l 5.077,14.264 c -7.367,1.263 -14.572,3.006 -21.576,5.207 z m 103.826,456.464 c -80.44,0 -145.881,-65.443 -145.881,-145.881 0,-80.438 65.442,-145.88 145.881,-145.88 80.439,0 145.881,65.441 145.881,145.88 0,80.439 -65.441,145.881 -145.881,145.881 z m 260.985,-70.077 h -55.212 c -6.085,0 -11.036,-4.951 -11.036,-11.037 v -98.744 c 0,-5.633 -4.566,-10.199 -10.199,-10.199 h -24.226 c -2.093,-7.587 -4.712,-14.958 -7.815,-22.072 h 53.276 c 6.086,0 11.037,4.951 11.037,11.036 v 98.744 c 0,5.633 4.566,10.199 10.199,10.199 h 33.977 c 6.086,0 11.037,4.951 11.037,11.036 -10e-4,6.086 -4.952,11.037 -11.038,11.037 z"
   style="fill:#ffffff;fill-opacity:1" />
	</g>
</g><g
     transform="translate(0,88.001)"
     id="g116"
     style="fill:#ffffff;fill-opacity:1">
	<g
   id="g114"
   style="fill:#ffffff;fill-opacity:1">
		<path
   inkscape:connector-curvature="0"
   id="path112"
   d="m 192.929,232.528 c -62.413,0 -113.19,50.777 -113.19,113.19 0,62.413 50.777,113.19 113.19,113.19 62.413,0 113.191,-50.775 113.191,-113.188 0,-62.413 -50.777,-113.192 -113.191,-113.192 z m -92.342,122.329 h 65.596 l -47.048,47.048 c -10.171,-13.326 -16.822,-29.473 -18.548,-47.048 z m 80.019,82.835 c -17.908,-2.387 -34.214,-9.9 -47.397,-21.013 l 47.397,-47.397 z m 0,-103.234 h -79.785 c 2.1,-17.276 8.962,-33.104 19.237,-46.123 l 17.877,17.877 c 1.992,1.992 4.602,2.987 7.212,2.987 2.61,0 5.221,-0.996 7.212,-2.987 3.983,-3.983 3.984,-10.441 0,-14.424 l -17.992,-17.992 c 12.973,-10.584 28.852,-17.732 46.238,-20.05 v 80.712 z m 84.246,69.823 -27.548,-27.548 c -3.983,-3.983 -10.441,-3.983 -14.425,0 -3.984,3.983 -3.983,10.441 0,14.425 l 27.434,27.434 c -13.815,10.903 -30.793,17.962 -49.308,19.566 v -83.299 h 25.901 c 5.633,0 10.199,-4.566 10.199,-10.199 0,-5.633 -4.566,-10.199 -10.199,-10.199 h -25.901 v -81.176 c 17.984,1.558 34.516,8.267 48.11,18.642 l -25.175,25.175 c -3.983,3.983 -3.983,10.441 0,14.424 1.992,1.992 4.602,2.987 7.212,2.987 2.61,0 5.221,-0.996 7.212,-2.987 l 25.524,-25.524 c 13.615,16.152 21.834,36.993 21.834,59.721 0,22.184 -7.831,42.574 -20.87,58.558 z"
   style="fill:#ffffff;fill-opacity:1" />
	</g>
</g><g
     transform="translate(0,88.001)"
     id="g122"
     style="fill:#ffffff;fill-opacity:1">
	<g
   id="g120"
   style="fill:#ffffff;fill-opacity:1">
		<path
   inkscape:connector-curvature="0"
   id="path118"
   d="m 260.883,334.459 h -3.185 c -5.633,0 -10.199,4.566 -10.199,10.199 0,5.633 4.566,10.199 10.199,10.199 h 3.185 c 5.633,0 10.199,-4.566 10.199,-10.199 0,-5.633 -4.566,-10.199 -10.199,-10.199 z"
   style="fill:#ffffff;fill-opacity:1" />
	</g>
</g></g>
<g
   id="g124"
   transform="translate(0,88.001)">
</g>
<g
   id="g126"
   transform="translate(0,88.001)">
</g>
<g
   id="g128"
   transform="translate(0,88.001)">
</g>
<g
   id="g130"
   transform="translate(0,88.001)">
</g>
<g
   id="g132"
   transform="translate(0,88.001)">
</g>
<g
   id="g134"
   transform="translate(0,88.001)">
</g>
<g
   id="g136"
   transform="translate(0,88.001)">
</g>
<g
   id="g138"
   transform="translate(0,88.001)">
</g>
<g
   id="g140"
   transform="translate(0,88.001)">
</g>
<g
   id="g142"
   transform="translate(0,88.001)">
</g>
<g
   id="g144"
   transform="translate(0,88.001)">
</g>
<g
   id="g146"
   transform="translate(0,88.001)">
</g>
<g
   id="g148"
   transform="translate(0,88.001)">
</g>
<g
   id="g150"
   transform="translate(0,88.001)">
</g>
<g
   id="g152"
   transform="translate(0,88.001)">
</g>
<rect
   style="opacity:0.98000004;fill:none;fill-opacity:1;stroke:#ffffff;stroke-width:18.555;stroke-linecap:round;stroke-miterlimit:4;stroke-dasharray:none;stroke-opacity:1"
   id="rect2065"
   width="581.44489"
   height="581.44489"
   x="9.2775574"
   y="9.2775574"
   ry="115.40129" /></svg>