<?xml version="1.0" encoding="UTF-8" standalone="no"?>
<svg
   xmlns:dc="http://purl.org/dc/elements/1.1/"
   xmlns:cc="http://creativecommons.org/ns#"
   xmlns:rdf="http://www.w3.org/1999/02/22-rdf-syntax-ns#"
   xmlns:svg="http://www.w3.org/2000/svg"
   xmlns="http://www.w3.org/2000/svg"
   height="600"
   width="600"
   xml:space="preserve"
   viewBox="0 0 600 600"
   y="0px"
   x="0px"
   id="Layer_1"
   version="1.1">


<g
   transform="translate(0,88.001)"
   id="g124">
</g>
<g
   transform="translate(0,88.001)"
   id="g126">
</g>
<g
   transform="translate(0,88.001)"
   id="g128">
</g>
<g
   transform="translate(0,88.001)"
   id="g130">
</g>
<g
   transform="translate(0,88.001)"
   id="g132">
</g>
<g
   transform="translate(0,88.001)"
   id="g134">
</g>
<g
   transform="translate(0,88.001)"
   id="g136">
</g>
<g
   transform="translate(0,88.001)"
   id="g138">
</g>
<g
   transform="translate(0,88.001)"
   id="g140">
</g>
<g
   transform="translate(0,88.001)"
   id="g142">
</g>
<g
   transform="translate(0,88.001)"
   id="g144">
</g>
<g
   transform="translate(0,88.001)"
   id="g146">
</g>
<g
   transform="translate(0,88.001)"
   id="g148">
</g>
<g
   transform="translate(0,88.001)"
   id="g150">
</g>
<g
   transform="translate(0,88.001)"
   id="g152">
</g>
<rect
   ry="115.40129"
   y="9.2775574"
   x="9.2775574"
   height="581.44489"
   width="581.44489"
   id="rect2065"
   style="opacity:0.98000004;fill:none;fill-opacity:1;stroke:#e6e6e6;stroke-width:18.555;stroke-linecap:round;stroke-miterlimit:4;stroke-dasharray:none;stroke-opacity:1" /><g
   id="text988"
   style="font-style:normal;font-variant:normal;font-weight:normal;font-stretch:normal;font-size:478.6000061px;line-height:1.25;font-family:sans-serif;-inkscape-font-specification:'sans-serif, Normal';font-variant-ligatures:normal;font-variant-caps:normal;font-variant-numeric:normal;font-feature-settings:normal;text-align:start;letter-spacing:0px;word-spacing:0px;writing-mode:lr-tb;text-anchor:start;fill:#e6e6e6;fill-opacity:1;stroke:none;stroke-width:2.49269342"
   transform="scale(1.0314104,0.96954615)"
   aria-label="0"><path
     id="path1270"
     style=""
     d="m 287.62066,145.00326 q -36.45586,0 -54.91748,35.98848 -18.22793,35.75478 -18.22793,107.73174 0,71.74326 18.22793,107.73174 18.46162,35.75478 54.91748,35.75478 36.68955,0 54.91748,-35.75478 18.46162,-35.98848 18.46162,-107.73174 0,-71.97696 -18.46162,-107.73174 -18.22793,-35.98848 -54.91748,-35.98848 z m 0,-37.39062 q 58.65654,0 89.50381,46.50459 31.08095,46.2709 31.08095,134.60625 0,88.10166 -31.08095,134.60625 -30.84727,46.2709 -89.50381,46.2709 -58.65655,0 -89.7375,-46.2709 -30.84727,-46.50459 -30.84727,-134.60625 0,-88.33535 30.84727,-134.60625 31.08095,-46.50459 89.7375,-46.50459 z" /></g>
     
</svg>