<?xml version="1.0" encoding="UTF-8" standalone="no"?>
<!-- Generator: Adobe Illustrator 19.0.0, SVG Export Plug-In . SVG Version: 6.00 Build 0)  -->

<svg
   xmlns:dc="http://purl.org/dc/elements/1.1/"
   xmlns:cc="http://creativecommons.org/ns#"
   xmlns:rdf="http://www.w3.org/1999/02/22-rdf-syntax-ns#"
   xmlns:svg="http://www.w3.org/2000/svg"
   xmlns="http://www.w3.org/2000/svg"
   xmlns:sodipodi="http://sodipodi.sourceforge.net/DTD/sodipodi-0.dtd"
   xmlns:inkscape="http://www.inkscape.org/namespaces/inkscape"
   version="1.1"
   id="Layer_1"
   x="0px"
   y="0px"
   viewBox="0 0 600 600"
   xml:space="preserve"
   sodipodi:docname="power.svg"
   width="600"
   height="600"
   inkscape:version="0.92.5 (2060ec1f9f, 2020-04-08)"
   inkscape:export-xdpi="32"
   inkscape:export-ydpi="32"><metadata
   id="metadata159"><rdf:RDF><cc:Work
       rdf:about=""><dc:format>image/svg+xml</dc:format><dc:type
         rdf:resource="http://purl.org/dc/dcmitype/StillImage" /><dc:title></dc:title></cc:Work></rdf:RDF></metadata><defs
   id="defs157" /><sodipodi:namedview
   pagecolor="#ffffff"
   bordercolor="#666666"
   borderopacity="1"
   objecttolerance="10"
   gridtolerance="10"
   guidetolerance="10"
   inkscape:pageopacity="0"
   inkscape:pageshadow="2"
   inkscape:window-width="1920"
   inkscape:window-height="1031"
   id="namedview155"
   showgrid="false"
   inkscape:zoom="0.78666667"
   inkscape:cx="79.50097"
   inkscape:cy="387.65142"
   inkscape:window-x="0"
   inkscape:window-y="25"
   inkscape:window-maximized="1"
   inkscape:current-layer="Layer_1" />



<g
   id="g124"
   transform="translate(0,88.001)">
</g>
<g
   id="g126"
   transform="translate(0,88.001)">
</g>
<g
   id="g128"
   transform="translate(0,88.001)">
</g>
<g
   id="g130"
   transform="translate(0,88.001)">
</g>
<g
   id="g132"
   transform="translate(0,88.001)">
</g>
<g
   id="g134"
   transform="translate(0,88.001)">
</g>
<g
   id="g136"
   transform="translate(0,88.001)">
</g>
<g
   id="g138"
   transform="translate(0,88.001)">
</g>
<g
   id="g140"
   transform="translate(0,88.001)">
</g>
<g
   id="g142"
   transform="translate(0,88.001)">
</g>
<g
   id="g144"
   transform="translate(0,88.001)">
</g>
<g
   id="g146"
   transform="translate(0,88.001)">
</g>
<g
   id="g148"
   transform="translate(0,88.001)">
</g>
<g
   id="g150"
   transform="translate(0,88.001)">
</g>
<g
   id="g152"
   transform="translate(0,88.001)">
</g>
    <rect
   ry="115.40129"
   y="9.2775574"
   x="9.2775574"
   height="581.44489"
   width="581.44489"
   id="rect2065"
   style="opacity:0.98000004;fill:none;fill-opacity:1;stroke:#e6e6e6;stroke-width:18.555;stroke-linecap:round;stroke-miterlimit:4;stroke-dasharray:none;stroke-opacity:1" />
   
    <path
   id="path91"
   d="m 325.33051,307.50355 c 0,13.52661 -11.38395,24.45489 -25.47458,24.45489 -14.09062,0 -25.47457,-10.92828 -25.47457,-24.45489 V 136.3193 c 0,-13.50369 11.38395,-24.45489 25.47457,-24.45489 14.09063,0 25.47458,10.9512 25.47458,24.45489 z m -165.58475,0 c 0,74.28174 62.73115,134.50191 140.11017,134.50191 77.37903,0 140.11017,-60.22017 140.11017,-134.50191 0,-41.57332 -19.66319,-78.79061 -50.55111,-103.47477 -10.8267,-8.63563 -12.33925,-24.04986 -3.34354,-34.43554 8.99571,-10.38569 25.07654,-11.79949 35.90323,-3.16386 42.03305,33.62548 68.94057,84.36939 68.94057,140.38638 0,101.94633 -85.57865,184.09949 -191.05932,184.09949 -105.48067,0 -191.05932,-82.15316 -191.05932,-184.09949 0,-56.01699 26.86772,-106.7609 68.94057,-140.38638 10.8267,-8.63563 26.90752,-7.22183 35.90323,3.16386 8.27924,10.38568 7.48316,25.79991 -3.34354,34.43554 -30.88792,24.68416 -50.55111,61.90145 -50.55111,103.47477 z"
   inkscape:connector-curvature="0"
   style="fill:#e6e6e6;stroke-width:0.77998525">
    </path>



</svg>