<?xml version="1.0" encoding="UTF-8" standalone="no"?>
<svg
   xmlns:dc="http://purl.org/dc/elements/1.1/"
   xmlns:cc="http://creativecommons.org/ns#"
   xmlns:rdf="http://www.w3.org/1999/02/22-rdf-syntax-ns#"
   xmlns:svg="http://www.w3.org/2000/svg"
   xmlns="http://www.w3.org/2000/svg"
   xmlns:xlink="http://www.w3.org/1999/xlink"
   id="svg8"
   version="1.1"
   viewBox="0 0 158.74997 158.74997"
   height="158.74997mm"
   width="158.74997mm">
  <g
     transform="translate(-8.3154945,-92.892878)"
     id="layer1">

             <g
       id="flowRoot871"
       style="font-style:normal;font-weight:normal;font-size:192px;line-height:1.25;font-family:sans-serif;letter-spacing:0px;word-spacing:0px;opacity:0.98000004;fill:#e6e6e6;fill-opacity:1;stroke:none"
       transform="matrix(0.49731569,0,0,0.50222141,-7.248074,-111.04841)"
       aria-label="IR">
      <path
         id="path2206"
         style="fill:#e6e6e6;fill-opacity:1"
         d="m 118.84375,489.56836 h 18.9375 v 139.96875 h -18.9375 z" />
      <path
         id="path2208"
         style="fill:#e6e6e6;fill-opacity:1"
         d="m 241.84375,563.91211 q 6.09375,2.0625 11.8125,8.8125 5.8125,6.75 11.625,18.5625 l 19.21875,38.25 H 264.15625 L 246.25,593.63086 q -6.9375,-14.0625 -13.5,-18.65625 -6.46875,-4.59375 -17.71875,-4.59375 h -20.625 v 59.15625 h -18.9375 V 489.56836 h 42.75 q 24,0 35.8125,10.03125 11.8125,10.03125 11.8125,30.28125 0,13.21875 -6.1875,21.9375 -6.09375,8.71875 -17.8125,12.09375 z m -47.4375,-58.78125 v 49.6875 h 23.8125 q 13.6875,0 20.625,-6.28125 7.03125,-6.375 7.03125,-18.65625 0,-12.28125 -7.03125,-18.46875 -6.9375,-6.28125 -20.625,-6.28125 z" />
    </g>
    <rect
       style="opacity:0.98000004;fill:none;fill-opacity:1;stroke:#e6e6e6;stroke-width:4.90934372;stroke-linecap:round;stroke-miterlimit:4;stroke-dasharray:none;stroke-opacity:1"
       id="rect2065"
       width="153.84062"
       height="153.84062"
       x="10.770166"
       y="95.347549"
       ry="30.533258" />
      </g>
</svg>
