<?xml version="1.0" encoding="UTF-8" standalone="no"?>
<!-- Generator: Adobe Illustrator 19.0.0, SVG Export Plug-In . SVG Version: 6.00 Build 0)  -->

<svg
   xmlns:dc="http://purl.org/dc/elements/1.1/"
   xmlns:cc="http://creativecommons.org/ns#"
   xmlns:rdf="http://www.w3.org/1999/02/22-rdf-syntax-ns#"
   xmlns:svg="http://www.w3.org/2000/svg"
   xmlns="http://www.w3.org/2000/svg"
   xmlns:sodipodi="http://sodipodi.sourceforge.net/DTD/sodipodi-0.dtd"
   xmlns:inkscape="http://www.inkscape.org/namespaces/inkscape"
   version="1.1"
   id="Layer_1"
   x="0px"
   y="0px"
   viewBox="0 0 600 600"
   xml:space="preserve"
   sodipodi:docname="TV_menu.svg"
   width="600"
   height="600"
   inkscape:version="0.92.5 (2060ec1f9f, 2020-04-08)"
   inkscape:export-xdpi="32"
   inkscape:export-ydpi="32"><metadata
   id="metadata929"><rdf:RDF><cc:Work
       rdf:about=""><dc:format>image/svg+xml</dc:format><dc:type
         rdf:resource="http://purl.org/dc/dcmitype/StillImage" /><dc:title></dc:title></cc:Work></rdf:RDF></metadata><defs
   id="defs927" />
   
   <sodipodi:namedview
   pagecolor="#ffffff"
   bordercolor="#666666"
   borderopacity="1"
   objecttolerance="10"
   gridtolerance="10"
   guidetolerance="10"
   inkscape:pageopacity="0"
   inkscape:pageshadow="2"
   inkscape:window-width="1920"
   inkscape:window-height="1031"
   id="namedview155"
   showgrid="false"
   inkscape:zoom="0.78666667"
   inkscape:cx="-88.983042"
   inkscape:cy="336.80396"
   inkscape:window-x="0"
   inkscape:window-y="25"
   inkscape:window-maximized="1"
   inkscape:current-layer="Layer_1" />



<g
   id="g124"
   transform="translate(0,88.001)">
</g>
<g
   id="g126"
   transform="translate(0,88.001)">
</g>
<g
   id="g128"
   transform="translate(0,88.001)">
</g>
<g
   id="g130"
   transform="translate(0,88.001)">
</g>
<g
   id="g132"
   transform="translate(0,88.001)">
</g>
<g
   id="g134"
   transform="translate(0,88.001)">
</g>
<g
   id="g136"
   transform="translate(0,88.001)">
</g>
<g
   id="g138"
   transform="translate(0,88.001)">
</g>
<g
   id="g140"
   transform="translate(0,88.001)">
</g>
<g
   id="g142"
   transform="translate(0,88.001)">
</g>
<g
   id="g144"
   transform="translate(0,88.001)">
</g>
<g
   id="g146"
   transform="translate(0,88.001)">
</g>
<g
   id="g148"
   transform="translate(0,88.001)">
</g>
<g
   id="g150"
   transform="translate(0,88.001)">
</g>
<g
   id="g152"
   transform="translate(0,88.001)">
</g>
<rect
   style="opacity:0.98000004;fill:none;fill-opacity:1;stroke:#e6e6e6;stroke-width:18.555;stroke-linecap:round;stroke-miterlimit:4;stroke-dasharray:none;stroke-opacity:1"
   id="rect2065"
   width="581.44489"
   height="581.44489"
   x="9.2775574"
   y="9.2775574"
   ry="115.40129" />
<text
   xml:space="preserve"
   style="font-style:normal;font-variant:normal;font-weight:normal;font-stretch:normal;font-size:133.33332825px;line-height:1.25;font-family:sans-serif;-inkscape-font-specification:'sans-serif, Normal';font-variant-ligatures:normal;font-variant-caps:normal;font-variant-numeric:normal;font-feature-settings:normal;text-align:start;letter-spacing:0px;word-spacing:0px;writing-mode:lr-tb;text-anchor:start;fill:#e6e6e6;fill-opacity:1;stroke:none"
   x="97.88134"
   y="169.06779"
   id="text4055"><tspan
     sodipodi:role="line"
     id="tspan8531"
     x="97.88134"
     y="169.06779">MENU</tspan></text>


<text
   xml:space="preserve"
   style="font-style:normal;font-weight:normal;font-size:40px;line-height:1.25;font-family:sans-serif;letter-spacing:0px;word-spacing:0px;fill:#000000;fill-opacity:1;stroke:none"
   x="258.05084"
   y="311.44067"
   id="text4059"><tspan
     sodipodi:role="line"
     id="tspan4057"
     x="258.05084"
     y="346.8313" /></text>


<flowRoot
   xml:space="preserve"
   id="flowRoot4061"
   style="fill:black;fill-opacity:1;stroke:none;font-family:sans-serif;font-style:normal;font-weight:normal;font-size:192px;line-height:1.25;letter-spacing:0px;word-spacing:0px;"><flowRegion
     id="flowRegion4063"
     style="font-size:192px;"><rect
       id="rect4065"
       width="335.59323"
       height="218.64407"
       x="91.525421"
       y="160.16949"
       style="font-size:192px;" /></flowRegion><flowPara
     id="flowPara4067" /></flowRoot><path
   inkscape:connector-curvature="0"
   d="m 177.74258,192.07627 a 29.386652,31.881356 0 0 0 -29.38665,31.88136 v 42.50847 a 29.386652,31.881356 0 0 0 29.38665,31.88136 H 432.4269 A 29.386652,31.881356 0 0 0 461.81356,266.4661 V 223.95763 A 29.386652,31.881356 0 0 0 432.4269,192.07627 Z m 19.5911,42.50847 h 58.77331 a 9.7955517,10.62712 0 0 1 0,21.25424 h -58.77331 a 9.7955517,10.62712 0 0 1 0,-21.25424 z m 194.48087,9.07556 a 4.8977754,5.3135593 0 0 1 3.46762,-9.07556 h 15.51616 a 4.8977754,5.3135593 0 0 1 3.46762,9.07556 l -7.75807,8.41668 a 4.8977754,5.3135593 0 0 1 -6.93525,0 z M 148.35593,362.11017 a 39.182203,42.508474 0 0 1 39.1822,-42.50848 h 235.09322 a 39.182203,42.508474 0 0 1 39.18221,42.50848 v 106.27118 a 39.182203,42.508474 0 0 1 -39.18221,42.50848 H 187.53813 a 39.182203,42.508474 0 0 1 -39.1822,-42.50848 z m 19.5911,63.76271 v 42.50847 a 19.591102,21.254237 0 0 0 19.5911,21.25424 h 235.09322 a 19.591102,21.254237 0 0 0 19.5911,-21.25424 v -42.50847 z m 274.27542,-21.25424 v -42.50847 a 19.591102,21.254237 0 0 0 -19.5911,-21.25424 H 187.53813 a 19.591102,21.254237 0 0 0 -19.5911,21.25424 v 42.50847 z M 187.53813,372.73729 a 9.7955508,10.627119 0 0 1 9.79555,-10.62712 H 373.6536 a 9.7955508,10.627119 0 0 1 0,21.25423 H 197.33368 a 9.7955508,10.627119 0 0 1 -9.79555,-10.62711 z m 0,85.01695 a 9.7955508,10.627119 0 0 1 9.79555,-10.62712 h 117.54661 a 9.7955508,10.627119 0 0 1 0,21.25423 H 197.33368 a 9.7955508,10.627119 0 0 1 -9.79555,-10.62711 z"
   id="path8581"
   style="color:#ff0000;fill:#e6e6e6;fill-opacity:1;stroke-width:20.40573311" /></svg>