<?xml version="1.0" encoding="UTF-8" standalone="no"?>
<svg
   xmlns:dc="http://purl.org/dc/elements/1.1/"
   xmlns:cc="http://creativecommons.org/ns#"
   xmlns:rdf="http://www.w3.org/1999/02/22-rdf-syntax-ns#"
   xmlns:svg="http://www.w3.org/2000/svg"
   xmlns="http://www.w3.org/2000/svg"
   xmlns:sodipodi="http://sodipodi.sourceforge.net/DTD/sodipodi-0.dtd"
   xmlns:inkscape="http://www.inkscape.org/namespaces/inkscape"
   height="600"
   width="600"
   xml:space="preserve"
   viewBox="0 0 600 600"
   y="0px"
   x="0px"
   id="Layer_1"
   version="1.1"
   sodipodi:docname="volume_up.svg"
   inkscape:version="0.92.5 (2060ec1f9f, 2020-04-08)">
   
   <sodipodi:namedview
   pagecolor="#ffffff"
   bordercolor="#666666"
   borderopacity="1"
   objecttolerance="10"
   gridtolerance="10"
   guidetolerance="10"
   inkscape:pageopacity="0"
   inkscape:pageshadow="2"
   inkscape:window-width="1920"
   inkscape:window-height="1031"
   id="namedview979"
   showgrid="false"
   inkscape:zoom="0.39333333"
   inkscape:cx="399.15254"
   inkscape:cy="300"
   inkscape:window-x="0"
   inkscape:window-y="25"
   inkscape:window-maximized="1"
   inkscape:current-layer="Layer_1" />


<g
   transform="translate(0,88.001)"
   id="g124">
</g>
<g
   transform="translate(0,88.001)"
   id="g126">
</g>
<g
   transform="translate(0,88.001)"
   id="g128">
</g>
<g
   transform="translate(0,88.001)"
   id="g130">
</g>
<g
   transform="translate(0,88.001)"
   id="g132">
</g>
<g
   transform="translate(0,88.001)"
   id="g134">
</g>
<g
   transform="translate(0,88.001)"
   id="g136">
</g>
<g
   transform="translate(0,88.001)"
   id="g138">
</g>
<g
   transform="translate(0,88.001)"
   id="g140">
</g>
<g
   transform="translate(0,88.001)"
   id="g142">
</g>
<g
   transform="translate(0,88.001)"
   id="g144">
</g>
<g
   transform="translate(0,88.001)"
   id="g146">
</g>
<g
   transform="translate(0,88.001)"
   id="g148">
</g>
<g
   transform="translate(0,88.001)"
   id="g150">
</g>
<g
   transform="translate(0,88.001)"
   id="g152">
</g>
<rect
   ry="115.40129"
   y="9.2775574"
   x="9.2775574"
   height="581.44489"
   width="581.44489"
   id="rect2065"
   style="opacity:0.98000004;fill:none;fill-opacity:1;stroke:#e6e6e6;stroke-width:18.555;stroke-linecap:round;stroke-miterlimit:4;stroke-dasharray:none;stroke-opacity:1" />
     
<path
   inkscape:connector-curvature="0"
   d="M 462.72195,513.07641 A 307.84131,303.1835 0 0 0 553.18871,298.02473 307.84131,303.1835 0 0 0 462.72195,82.973056 l -25.72307,25.298094 a 271.61827,267.50854 0 0 1 79.82146,189.75358 c 0,74.10516 -30.5189,141.197 -79.82146,189.75359 z"
   id="path3572"
   style="color:#ff0000;fill:#e6e6e6;fill-opacity:1;stroke-width:36.05612183" /><path
   inkscape:connector-curvature="0"
   d="m 411.31213,462.48023 a 235.43156,231.86937 0 0 0 69.17618,-164.4555 235.43156,231.86937 0 0 0 -69.17618,-164.45549 l -25.68675,25.2981 a 199.20852,196.1944 0 0 1 58.5309,139.15739 199.20852,196.1944 0 0 1 -58.49456,139.19319 z"
   id="path3574"
   style="color:#ff0000;fill:#e6e6e6;fill-opacity:1;stroke-width:36.05612183" /><path
   inkscape:connector-curvature="0"
   d="m 359.93863,411.88404 a 162.98549,160.51944 0 0 0 47.88562,-113.85931 162.98549,160.51944 0 0 0 -47.88562,-113.8593 l -25.68674,25.29809 a 126.76245,124.84448 0 0 1 37.24033,88.56121 126.79879,124.88026 0 0 1 -37.24033,88.56122 z M 287.6379,138.79346 a 18.166015,17.891155 0 0 1 10.28195,16.10204 v 286.25847 a 18.166015,17.891155 0 0 1 -29.5016,13.9551 l -85.8526,-67.62856 H 98.093689 A 18.166015,17.891155 0 0 1 79.927669,369.58935 V 226.46012 a 18.166015,17.891155 0 0 1 18.16602,-17.89116 h 84.471961 l 85.8526,-67.62857 a 18.166015,17.891155 0 0 1 19.21965,-2.14693 z"
   id="path3576"
   style="color:#ff0000;fill:#e6e6e6;fill-opacity:1;stroke-width:36.05612183" /></svg>