<svg 
    style="color: white" 
    xmlns="http://www.w3.org/2000/svg" 
    width="16" 
    height="16" 
    fill="currentColor" 
    class="bi bi-bluetooth" 
    viewBox="0 0 16 16">

    <path 
        fill-rule="evenodd" 
        d="m8.543 3.948 1.316 1.316L8.543 6.58V3.948Zm0 8.104 1.316-1.316L8.543 9.42v2.632Zm-1.41-4.043L4.275 5.133l.827-.827L7.377 6.58V1.128l4.137 4.136L8.787 8.01l2.745 2.745-4.136 4.137V9.42l-2.294 2.274-.827-.827L7.133 8.01ZM7.903 16c3.498 0 5.904-1.655 5.904-8.01 0-6.335-2.406-7.99-5.903-7.99C4.407 0 2 1.655 2 8.01 2 14.344 4.407 16 7.904 16Z" 
        fill="white">
    </path>

</svg>

<svg
    style="color: white"
    width="24" 
    height="24" 
    stroke-width="1.5" 
    viewBox="0 0 24 24" 
    fill="none" 
    xmlns="http://www.w3.org/2000/svg"> 
    
    <path 
        d="M9 9.6L15 14.7L11.8571 18V6L15 9.3L9 14.4"
        stroke="currentColor" 
        stroke-linecap="round" 
        stroke-linejoin="round"/> 
    
    <path
        d="M2 15V9C2 5.68629 4.68629 3 8 3H16C19.3137 3 22 5.68629 22 9V15C22 18.3137 19.3137 21 16 21H8C4.68629 21 2 18.3137 2 15Z" 
        stroke="currentColor" 
        stroke-width="1.5"/>

</svg>