<?xml version="1.0" encoding="UTF-8" standalone="no"?>
<!-- Generator: Adobe Illustrator 19.0.0, SVG Export Plug-In . SVG Version: 6.00 Build 0)  -->

<svg
   xmlns:dc="http://purl.org/dc/elements/1.1/"
   xmlns:cc="http://creativecommons.org/ns#"
   xmlns:rdf="http://www.w3.org/1999/02/22-rdf-syntax-ns#"
   xmlns:svg="http://www.w3.org/2000/svg"
   xmlns="http://www.w3.org/2000/svg"
   xmlns:sodipodi="http://sodipodi.sourceforge.net/DTD/sodipodi-0.dtd"
   xmlns:inkscape="http://www.inkscape.org/namespaces/inkscape"
   version="1.1"
   id="Layer_1"
   x="0px"
   y="0px"
   viewBox="0 0 600 600"
   xml:space="preserve"
   sodipodi:docname="button_speed.svg"
   width="600"
   height="600"
   inkscape:version="0.92.5 (2060ec1f9f, 2020-04-08)"
   inkscape:export-xdpi="32"
   inkscape:export-ydpi="32"><metadata
   id="metadata159"><rdf:RDF><cc:Work
       rdf:about=""><dc:format>image/svg+xml</dc:format><dc:type
         rdf:resource="http://purl.org/dc/dcmitype/StillImage" /><dc:title></dc:title></cc:Work></rdf:RDF></metadata><defs
   id="defs157" /><sodipodi:namedview
   pagecolor="#ffffff"
   bordercolor="#666666"
   borderopacity="1"
   objecttolerance="10"
   gridtolerance="10"
   guidetolerance="10"
   inkscape:pageopacity="0"
   inkscape:pageshadow="2"
   inkscape:window-width="1920"
   inkscape:window-height="1031"
   id="namedview155"
   showgrid="false"
   inkscape:zoom="0.78666667"
   inkscape:cx="79.50097"
   inkscape:cy="489.34633"
   inkscape:window-x="0"
   inkscape:window-y="25"
   inkscape:window-maximized="1"
   inkscape:current-layer="Layer_1" />



<g
   id="g124"
   transform="translate(0,88.001)">
</g>
<g
   id="g126"
   transform="translate(0,88.001)">
</g>
<g
   id="g128"
   transform="translate(0,88.001)">
</g>
<g
   id="g130"
   transform="translate(0,88.001)">
</g>
<g
   id="g132"
   transform="translate(0,88.001)">
</g>
<g
   id="g134"
   transform="translate(0,88.001)">
</g>
<g
   id="g136"
   transform="translate(0,88.001)">
</g>
<g
   id="g138"
   transform="translate(0,88.001)">
</g>
<g
   id="g140"
   transform="translate(0,88.001)">
</g>
<g
   id="g142"
   transform="translate(0,88.001)">
</g>
<g
   id="g144"
   transform="translate(0,88.001)">
</g>
<g
   id="g146"
   transform="translate(0,88.001)">
</g>
<g
   id="g148"
   transform="translate(0,88.001)">
</g>
<g
   id="g150"
   transform="translate(0,88.001)">
</g>
<g
   id="g152"
   transform="translate(0,88.001)">
</g>
<rect
   style="opacity:0.98000004;fill:none;fill-opacity:1;stroke:#e6e6e6;stroke-width:18.555;stroke-linecap:round;stroke-miterlimit:4;stroke-dasharray:none;stroke-opacity:1"
   id="rect2065"
   width="581.44489"
   height="581.44489"
   x="9.2775574"
   y="9.2775574"
   ry="115.40129" />
   

   <path
   d="m 297.45775,176.10505 a 14.800846,14.33868 0 0 1 14.80085,14.33868 v 43.01604 a 14.80085,14.338684 0 0 1 -29.6017,0 v -43.01604 a 14.800846,14.33868 0 0 1 14.80085,-14.33868 z m -126.34002,49.66919 a 14.800846,14.33868 0 0 1 20.9284,0 l 27.08555,26.21111 a 14.819542,14.356792 0 1 1 -20.958,20.30356 l -27.05595,-26.23979 a 14.800846,14.33868 0 0 1 0,-20.27488 z M 119.84761,348.1692 a 14.800846,14.33868 0 0 1 14.80085,-14.33868 h 46.94827 a 14.800851,14.338685 0 0 1 0,28.67737 H 134.64846 A 14.800846,14.33868 0 0 1 119.84761,348.1692 Z m 281.21606,0 a 14.800846,14.33868 0 0 1 14.80084,-14.33868 h 44.40254 a 14.800851,14.338685 0 0 1 0,28.67737 H 415.86451 A 14.800846,14.33868 0 0 1 401.06367,348.1692 Z m 22.31967,-121.76407 a 11.515058,11.155493 0 0 0 -15.60008,-0.57354 L 284.04819,328.38183 a 26.937539,26.096397 0 1 0 38.5414,36.07611 L 424.2418,241.23133 a 11.515058,11.155493 0 0 0 -0.85846,-14.85487 z"
   id="path357"
   inkscape:connector-curvature="0"
   style="fill:#e6e6e6;stroke-width:29.13585854" />

   <path
   d="m 60.644219,348.1692 a 236.81354,229.41887 0 1 1 460.217501,76.31046 c -13.08396,35.93273 -54.61512,45.94113 -86.79217,35.84669 -38.65981,-12.13052 -92.9493,-26.12507 -136.6118,-26.12507 -43.63289,0 -97.9816,13.99455 -136.61181,26.12507 -32.17703,10.09444 -73.708208,0.086 -86.792155,-35.84669 A 236.45832,229.07475 0 0 1 60.644219,348.1692 Z M 297.45775,147.42768 A 207.21183,200.74151 0 0 0 101.99779,414.95877 c 6.00914,16.48948 27.32236,25.12137 49.73083,18.06674 39.07424,-12.21656 97.12316,-27.50159 145.72913,-27.50159 48.60598,0 106.6845,15.25635 145.72913,27.53027 22.40847,7.02595 43.72169,-1.60594 49.73084,-18.09542 A 207.21183,200.74151 0 0 0 297.45775,147.42768 Z"
   id="path359"
   inkscape:connector-curvature="0"
   style="fill:#e6e6e6;fill-rule:evenodd;stroke-width:29.13585854" />
   

</svg>