<?xml version="1.0" encoding="UTF-8" standalone="no"?>
<!-- Generator: Adobe Illustrator 19.0.0, SVG Export Plug-In . SVG Version: 6.00 Build 0)  -->

<svg
   xmlns:dc="http://purl.org/dc/elements/1.1/"
   xmlns:cc="http://creativecommons.org/ns#"
   xmlns:rdf="http://www.w3.org/1999/02/22-rdf-syntax-ns#"
   xmlns:svg="http://www.w3.org/2000/svg"
   xmlns="http://www.w3.org/2000/svg"
   xmlns:sodipodi="http://sodipodi.sourceforge.net/DTD/sodipodi-0.dtd"
   xmlns:inkscape="http://www.inkscape.org/namespaces/inkscape"
   version="1.1"
   id="Layer_1"
   x="0px"
   y="0px"
   viewBox="0 0 600 600"
   xml:space="preserve"
   sodipodi:docname="button_drive_mode.svg"
   width="600"
   height="600"
   inkscape:version="0.92.5 (2060ec1f9f, 2020-04-08)"
   inkscape:export-filename="/home/braillon/inria/fabrikarium/MagicJoystick2020/Interface/html/button_default.png"
   inkscape:export-xdpi="32"
   inkscape:export-ydpi="32"><metadata
   id="metadata159"><rdf:RDF><cc:Work
       rdf:about=""><dc:format>image/svg+xml</dc:format><dc:type
         rdf:resource="http://purl.org/dc/dcmitype/StillImage" /><dc:title></dc:title></cc:Work></rdf:RDF></metadata><defs
   id="defs157" /><sodipodi:namedview
   pagecolor="#ffffff"
   bordercolor="#666666"
   borderopacity="1"
   objecttolerance="10"
   gridtolerance="10"
   guidetolerance="10"
   inkscape:pageopacity="0"
   inkscape:pageshadow="2"
   inkscape:window-width="1920"
   inkscape:window-height="1031"
   id="namedview155"
   showgrid="false"
   inkscape:zoom="0.78666667"
   inkscape:cx="79.50097"
   inkscape:cy="489.34633"
   inkscape:window-x="0"
   inkscape:window-y="25"
   inkscape:window-maximized="1"
   inkscape:current-layer="Layer_1" />



<g
   id="g124"
   transform="translate(0,88.001)">
</g>
<g
   id="g126"
   transform="translate(0,88.001)">
</g>
<g
   id="g128"
   transform="translate(0,88.001)">
</g>
<g
   id="g130"
   transform="translate(0,88.001)">
</g>
<g
   id="g132"
   transform="translate(0,88.001)">
</g>
<g
   id="g134"
   transform="translate(0,88.001)">
</g>
<g
   id="g136"
   transform="translate(0,88.001)">
</g>
<g
   id="g138"
   transform="translate(0,88.001)">
</g>
<g
   id="g140"
   transform="translate(0,88.001)">
</g>
<g
   id="g142"
   transform="translate(0,88.001)">
</g>
<g
   id="g144"
   transform="translate(0,88.001)">
</g>
<g
   id="g146"
   transform="translate(0,88.001)">
</g>
<g
   id="g148"
   transform="translate(0,88.001)">
</g>
<g
   id="g150"
   transform="translate(0,88.001)">
</g>
<g
   id="g152"
   transform="translate(0,88.001)">
</g>
<rect
   style="opacity:0.98000004;fill:none;fill-opacity:1;stroke:#e6e6e6;stroke-width:18.555;stroke-linecap:round;stroke-miterlimit:4;stroke-dasharray:none;stroke-opacity:1"
   id="rect2065"
   width="581.44489"
   height="581.44489"
   x="9.2775574"
   y="9.2775574"
   ry="115.40129" />


<path
   d="m 168.9842,101.59039 c 0,-5.75176 64.40215,-46.014119 128.35079,-46.014119 63.94722,0 128.3508,40.262359 128.3508,46.014119 0,20.50916 -2.36308,32.65426 -4.36821,39.26846 -1.31631,4.33979 -5.72587,6.74567 -10.61461,6.74567 H 183.96701 c -4.88873,0 -9.29972,-2.4072 -10.61461,-6.74699 -2.00655,-6.61551 -4.3682,-18.76061 -4.3682,-39.26714 z m 106.95899,-6.573441 c -7.87646,0 -14.2612,5.886131 -14.2612,13.146891 0,7.26103 6.38474,13.14689 14.2612,13.14689 h 42.7836 c 7.87504,0 14.2612,-5.88586 14.2612,-13.14689 0,-7.26076 -6.38616,-13.146891 -14.2612,-13.146891 z"
   id="path208"
   inkscape:connector-curvature="0"
   style="clip-rule:evenodd;fill:#e6e6e6;fill-rule:evenodd;stroke-width:13.69271564" /> 
    
<path
   d="M 183.78447,229.3519 C 136.2904,215.80797 148.27551,191.63083 166.39864,173.8983 h 265.84587 c 14.48796,17.05941 22.26316,40.08356 -21.54011,53.86677 0.47632,3.89805 0.72019,7.85921 0.72019,11.8677 0,58.08691 -51.08077,105.17514 -114.0896,105.17514 -63.01025,0 -114.08959,-47.08823 -114.08959,-105.17514 0,-3.46552 0.18254,-6.89555 0.53907,-10.28087 z m 109.66292,10.28087 c 37.69092,0 66.88217,-1.83794 89.28224,-5.05235 0.11409,1.66965 0.17256,3.35377 0.17256,5.05235 0,43.56485 -38.30986,78.88135 -85.5672,78.88135 -47.25733,0 -85.56719,-35.3165 -85.56719,-78.88135 0,-1.39094 0.0385,-2.77268 0.11551,-4.14522 20.85558,2.65304 47.60103,4.14522 81.56408,4.14522 z"
   id="path210"
   inkscape:connector-curvature="0"
   style="clip-rule:evenodd;fill:#e6e6e6;fill-rule:evenodd;stroke-width:13.69271564" /> 
    
<path
   d="m 417.37864,431.56557 c -25.36782,-36.37088 -69.65455,-60.46388 -120.04365,-60.46388 -50.40906,0 -94.71005,24.11009 -120.07217,60.50332 -4.63061,-6.55504 -11.80114,-11.61791 -20.64166,-13.80161 l -27.55121,-6.80483 c -19.01873,-4.6987 -38.569127,5.70706 -43.665509,23.23976 l -11.073108,38.09706 c -5.096383,17.53402 6.190786,35.55578 25.210805,40.25448 l 27.549782,6.80483 c 9.74326,2.40719 19.62341,0.8506 27.63108,-3.59699 0.0471,7.22421 6.41326,13.06669 14.2612,13.06669 7.87503,0 14.2612,-5.88586 14.2612,-13.14689 v -13.14689 c 0,-5.00897 0.37935,-9.93642 1.1138,-14.7587 l 74.21528,18.33071 c 6.82541,13.42429 21.61427,22.72177 38.76051,22.72177 17.14482,0 31.93511,-9.29748 38.76052,-22.72177 l 74.21385,-18.33071 c 0.73445,4.82228 1.11523,9.74973 1.11523,14.7587 v 13.14689 c 0,7.26103 6.38474,13.14689 14.2612,13.14689 7.8294,0 14.18704,-5.8175 14.25977,-13.02068 7.99626,4.41999 17.85074,5.96212 27.56833,3.56149 l 27.54978,-6.80483 c 19.02016,-4.6987 30.30648,-22.72046 25.21095,-40.25447 L 509.2008,434.24885 c -5.09553,-17.5327 -24.64621,-27.93846 -43.66494,-23.23977 l -27.55121,6.80484 c -8.81913,2.17844 -15.9754,7.22158 -20.60601,13.75165 z M 191.8449,462.43841 c 15.37215,-34.30287 49.86143,-59.47391 91.22889,-64.22914 v 54.01795 c -12.89783,4.20175 -22.95625,13.9436 -26.8139,26.12288 z m 210.98019,0 c -15.37358,-34.30287 -49.86286,-59.47391 -91.2289,-64.22914 v 54.01795 c 12.89641,4.20175 22.95483,13.9436 26.81248,26.12288 z m -105.4901,40.13221 c 7.87504,0 14.2612,-5.88587 14.2612,-13.14689 0,-7.26103 -6.38616,-13.1469 -14.2612,-13.1469 -7.87646,0 -14.2612,5.88587 -14.2612,13.1469 0,7.26102 6.38474,13.14689 14.2612,13.14689 z"
   id="path212"
   inkscape:connector-curvature="0"
   style="clip-rule:evenodd;fill:#e6e6e6;fill-rule:evenodd;stroke-width:13.69271564" />

   

</svg>