<?xml version="1.0" encoding="UTF-8" standalone="no"?>
<!-- Generator: Adobe Illustrator 19.0.0, SVG Export Plug-In . SVG Version: 6.00 Build 0)  -->

<svg
   xmlns:dc="http://purl.org/dc/elements/1.1/"
   xmlns:cc="http://creativecommons.org/ns#"
   xmlns:rdf="http://www.w3.org/1999/02/22-rdf-syntax-ns#"
   xmlns:svg="http://www.w3.org/2000/svg"
   xmlns="http://www.w3.org/2000/svg"
   xmlns:sodipodi="http://sodipodi.sourceforge.net/DTD/sodipodi-0.dtd"
   xmlns:inkscape="http://www.inkscape.org/namespaces/inkscape"
   version="1.1"
   id="Layer_1"
   x="0px"
   y="0px"
   viewBox="0 0 600 600"
   xml:space="preserve"
   sodipodi:docname="button_horn.svg"
   width="600"
   height="600"
   inkscape:version="0.92.5 (2060ec1f9f, 2020-04-08)"
   inkscape:export-xdpi="32"
   inkscape:export-ydpi="32"><metadata
   id="metadata159"><rdf:RDF><cc:Work
       rdf:about=""><dc:format>image/svg+xml</dc:format><dc:type
         rdf:resource="http://purl.org/dc/dcmitype/StillImage" /><dc:title></dc:title></cc:Work></rdf:RDF></metadata><defs
   id="defs157" /><sodipodi:namedview
   pagecolor="#ffffff"
   bordercolor="#666666"
   borderopacity="1"
   objecttolerance="10"
   gridtolerance="10"
   guidetolerance="10"
   inkscape:pageopacity="0"
   inkscape:pageshadow="2"
   inkscape:window-width="1920"
   inkscape:window-height="1031"
   id="namedview155"
   showgrid="false"
   inkscape:zoom="0.78666667"
   inkscape:cx="79.50097"
   inkscape:cy="387.65142"
   inkscape:window-x="0"
   inkscape:window-y="25"
   inkscape:window-maximized="1"
   inkscape:current-layer="Layer_1" />



<g
   id="g124"
   transform="translate(0,88.001)">
</g>
<g
   id="g126"
   transform="translate(0,88.001)">
</g>
<g
   id="g128"
   transform="translate(0,88.001)">
</g>
<g
   id="g130"
   transform="translate(0,88.001)">
</g>
<g
   id="g132"
   transform="translate(0,88.001)">
</g>
<g
   id="g134"
   transform="translate(0,88.001)">
</g>
<g
   id="g136"
   transform="translate(0,88.001)">
</g>
<g
   id="g138"
   transform="translate(0,88.001)">
</g>
<g
   id="g140"
   transform="translate(0,88.001)">
</g>
<g
   id="g142"
   transform="translate(0,88.001)">
</g>
<g
   id="g144"
   transform="translate(0,88.001)">
</g>
<g
   id="g146"
   transform="translate(0,88.001)">
</g>
<g
   id="g148"
   transform="translate(0,88.001)">
</g>
<g
   id="g150"
   transform="translate(0,88.001)">
</g>
<g
   id="g152"
   transform="translate(0,88.001)">
</g>
<rect
   style="opacity:0.98000004;fill:none;fill-opacity:1;stroke:#e6e6e6;stroke-width:18.555;stroke-linecap:round;stroke-miterlimit:4;stroke-dasharray:none;stroke-opacity:1"
   id="rect2065"
   width="581.44489"
   height="581.44489"
   x="9.2775574"
   y="9.2775574"
   ry="115.40129" />
   
    <path
   d="m 469.83051,243.25965 c 14.16674,6.81178 24.37288,25.15716 24.37288,46.75361 0,21.59646 -10.20614,39.94183 -24.37288,46.75361 v 114.25221 c 0,9.98546 -5.94089,19.04203 -15.08072,22.91236 -9.06366,3.79293 -19.57447,1.70295 -26.50551,-5.41846 L 394.96007,434.06702 C 358.40074,396.91184 308.81716,376.7087 257.10096,376.7087 h -6.62638 v 99.0805 c 0,13.70098 -10.89163,24.77013 -24.37288,24.77013 h -48.74577 c -13.4584,0 -24.37288,-11.06915 -24.37288,-24.77013 v -99.0805 c -26.92442,0 -48.74576,-22.2157 -48.74576,-49.54025 v -74.31038 c 0,-27.32454 21.82134,-49.54025 48.74576,-49.54025 h 104.11791 c 51.7162,0 101.29978,-20.89979 137.85911,-58.0395 l 33.28421,-33.78568 c 6.93104,-7.08387 17.44185,-9.20287 26.50551,-5.36892 9.13983,3.83395 15.08072,12.8673 15.08072,22.88372 z m -212.72955,9.59842 h -6.62638 v 74.31038 h 6.62638 c 60.77987,0 119.19862,23.06718 163.98379,64.47973 V 188.37834 c -44.78517,41.41255 -103.20392,64.47973 -163.98379,64.47973 z"
   id="path642"
   inkscape:connector-curvature="0"
   style="fill:#e6e6e6;stroke-width:0.76783442">
    </path>   
   
</svg>