<?xml version="1.0" encoding="UTF-8" standalone="no"?>
<!-- Generator: Adobe Illustrator 19.0.0, SVG Export Plug-In . SVG Version: 6.00 Build 0)  -->

<svg
   xmlns:dc="http://purl.org/dc/elements/1.1/"
   xmlns:cc="http://creativecommons.org/ns#"
   xmlns:rdf="http://www.w3.org/1999/02/22-rdf-syntax-ns#"
   xmlns:svg="http://www.w3.org/2000/svg"
   xmlns="http://www.w3.org/2000/svg"
   xmlns:sodipodi="http://sodipodi.sourceforge.net/DTD/sodipodi-0.dtd"
   xmlns:inkscape="http://www.inkscape.org/namespaces/inkscape"
   version="1.1"
   id="Layer_1"
   x="0px"
   y="0px"
   viewBox="0 0 600 600"
   xml:space="preserve"
   sodipodi:docname="button_8.svg"
   width="600"
   height="600"
   inkscape:version="0.92.5 (2060ec1f9f, 2020-04-08)"
   inkscape:export-xdpi="32"
   inkscape:export-ydpi="32">
   
   <sodipodi:namedview
   pagecolor="#ffffff"
   bordercolor="#666666"
   borderopacity="1"
   objecttolerance="10"
   gridtolerance="10"
   guidetolerance="10"
   inkscape:pageopacity="0"
   inkscape:pageshadow="2"
   inkscape:window-width="1920"
   inkscape:window-height="1031"
   id="namedview155"
   showgrid="false"
   inkscape:zoom="0.78666667"
   inkscape:cx="29.924699"
   inkscape:cy="387.65142"
   inkscape:window-x="0"
   inkscape:window-y="25"
   inkscape:window-maximized="1"
   inkscape:current-layer="Layer_1" />



<g
   id="g124"
   transform="translate(0,88.001)">
</g>
<g
   id="g126"
   transform="translate(0,88.001)">
</g>
<g
   id="g128"
   transform="translate(0,88.001)">
</g>
<g
   id="g130"
   transform="translate(0,88.001)">
</g>
<g
   id="g132"
   transform="translate(0,88.001)">
</g>
<g
   id="g134"
   transform="translate(0,88.001)">
</g>
<g
   id="g136"
   transform="translate(0,88.001)">
</g>
<g
   id="g138"
   transform="translate(0,88.001)">
</g>
<g
   id="g140"
   transform="translate(0,88.001)">
</g>
<g
   id="g142"
   transform="translate(0,88.001)">
</g>
<g
   id="g144"
   transform="translate(0,88.001)">
</g>
<g
   id="g146"
   transform="translate(0,88.001)">
</g>
<g
   id="g148"
   transform="translate(0,88.001)">
</g>
<g
   id="g150"
   transform="translate(0,88.001)">
</g>
<g
   id="g152"
   transform="translate(0,88.001)">
</g>
<rect
   style="opacity:0.98000004;fill:none;fill-opacity:1;stroke:#e6e6e6;stroke-width:18.555;stroke-linecap:round;stroke-miterlimit:4;stroke-dasharray:none;stroke-opacity:1"
   id="rect2065"
   width="581.44489"
   height="581.44489"
   x="9.2775574"
   y="9.2775574"
   ry="115.40129" /><g
   aria-label="8"
   transform="scale(1.0314104,0.96954615)"
   style="font-style:normal;font-variant:normal;font-weight:normal;font-stretch:normal;font-size:478.6000061px;line-height:1.25;font-family:sans-serif;-inkscape-font-specification:'sans-serif, Normal';font-variant-ligatures:normal;font-variant-caps:normal;font-variant-numeric:normal;font-feature-settings:normal;text-align:start;letter-spacing:0px;word-spacing:0px;writing-mode:lr-tb;text-anchor:start;fill:#e6e6e6;fill-opacity:1;stroke:none;stroke-width:2.49269342"
   id="text988"><path
     d="m 287.62066,297.13637 q -33.65157,0 -53.04795,17.99424 -19.1627,17.99424 -19.1627,49.54258 0,31.54834 19.1627,49.54257 19.39638,17.99424 53.04795,17.99424 33.65156,0 53.04795,-17.99424 19.39638,-18.22793 19.39638,-49.54257 0,-31.54834 -19.39638,-49.54258 -19.1627,-17.99424 -53.04795,-17.99424 z m -47.20567,-20.09746 q -30.37988,-7.47813 -47.43935,-28.27666 -16.82579,-20.79854 -16.82579,-50.71104 0,-41.83076 29.67881,-66.13467 29.9125,-24.3039 81.792,-24.3039 52.11318,0 81.79199,24.3039 29.67881,24.30391 29.67881,66.13467 0,29.9125 -17.05947,50.71104 -16.82579,20.79853 -46.97198,28.27666 34.11895,7.94551 53.04795,31.08095 19.1627,23.13545 19.1627,56.55333 0,50.71103 -31.08096,77.81924 -30.84727,27.1082 -88.56904,27.1082 -57.72178,0 -88.80274,-27.1082 -30.84727,-27.10821 -30.84727,-77.81924 0,-33.41788 19.1627,-56.55333 19.1627,-23.13544 53.28164,-31.08095 z m -17.29316,-74.54756 q 0,27.1082 16.82578,42.29814 17.05947,15.18994 47.67305,15.18994 30.37988,0 47.43935,-15.18994 17.29317,-15.18994 17.29317,-42.29814 0,-27.10821 -17.29317,-42.29815 -17.05947,-15.18994 -47.43935,-15.18994 -30.61358,0 -47.67305,15.18994 -16.82578,15.18994 -16.82578,42.29815 z"
     style=""
     id="path1167" /></g>
</svg>