<?xml version="1.0" encoding="UTF-8" standalone="no"?>
<!-- Generator: Adobe Illustrator 19.0.0, SVG Export Plug-In . SVG Version: 6.00 Build 0)  -->

<svg
   xmlns:dc="http://purl.org/dc/elements/1.1/"
   xmlns:cc="http://creativecommons.org/ns#"
   xmlns:rdf="http://www.w3.org/1999/02/22-rdf-syntax-ns#"
   xmlns:svg="http://www.w3.org/2000/svg"
   xmlns="http://www.w3.org/2000/svg"
   xmlns:sodipodi="http://sodipodi.sourceforge.net/DTD/sodipodi-0.dtd"
   xmlns:inkscape="http://www.inkscape.org/namespaces/inkscape"
   version="1.1"
   id="Layer_1"
   x="0px"
   y="0px"
   viewBox="0 0 600 600"
   xml:space="preserve"
   sodipodi:docname="source.svg"
   width="600"
   height="600"
   inkscape:version="0.92.5 (2060ec1f9f, 2020-04-08)"
   inkscape:export-xdpi="32"
   inkscape:export-ydpi="32"><metadata
   id="metadata929"><rdf:RDF><cc:Work
       rdf:about=""><dc:format>image/svg+xml</dc:format><dc:type
         rdf:resource="http://purl.org/dc/dcmitype/StillImage" /><dc:title></dc:title></cc:Work></rdf:RDF></metadata><defs
   id="defs927" />
   
   <sodipodi:namedview
   pagecolor="#ffffff"
   bordercolor="#666666"
   borderopacity="1"
   objecttolerance="10"
   gridtolerance="10"
   guidetolerance="10"
   inkscape:pageopacity="0"
   inkscape:pageshadow="2"
   inkscape:window-width="1920"
   inkscape:window-height="1031"
   id="namedview155"
   showgrid="false"
   inkscape:zoom="0.78666667"
   inkscape:cx="401.69492"
   inkscape:cy="387.65142"
   inkscape:window-x="0"
   inkscape:window-y="25"
   inkscape:window-maximized="1"
   inkscape:current-layer="Layer_1" />



<g
   id="g124"
   transform="translate(0,88.001)">
</g>
<g
   id="g126"
   transform="translate(0,88.001)">
</g>
<g
   id="g128"
   transform="translate(0,88.001)">
</g>
<g
   id="g130"
   transform="translate(0,88.001)">
</g>
<g
   id="g132"
   transform="translate(0,88.001)">
</g>
<g
   id="g134"
   transform="translate(0,88.001)">
</g>
<g
   id="g136"
   transform="translate(0,88.001)">
</g>
<g
   id="g138"
   transform="translate(0,88.001)">
</g>
<g
   id="g140"
   transform="translate(0,88.001)">
</g>
<g
   id="g142"
   transform="translate(0,88.001)">
</g>
<g
   id="g144"
   transform="translate(0,88.001)">
</g>
<g
   id="g146"
   transform="translate(0,88.001)">
</g>
<g
   id="g148"
   transform="translate(0,88.001)">
</g>
<g
   id="g150"
   transform="translate(0,88.001)">
</g>
<g
   id="g152"
   transform="translate(0,88.001)">
</g>
<rect
   style="opacity:0.98000004;fill:none;fill-opacity:1;stroke:#e6e6e6;stroke-width:18.555;stroke-linecap:round;stroke-miterlimit:4;stroke-dasharray:none;stroke-opacity:1"
   id="rect2065"
   width="581.44489"
   height="581.44489"
   x="9.2775574"
   y="9.2775574"
   ry="115.40129" />
<g
   aria-label="SOURCE"
   style="font-style:normal;font-weight:normal;font-size:40px;line-height:1.25;font-family:sans-serif;letter-spacing:0px;word-spacing:0px;fill:#e6e6e6;fill-opacity:1;stroke:none"
   id="text4055"
   transform="translate(-1.2711864,-16.525424)"><path
     d="m 98.049074,148.78619 v 12.82552 q -7.486979,-3.58073 -14.127604,-5.33854 -6.640624,-1.75782 -12.82552,-1.75782 -10.742187,0 -16.601562,4.16667 -5.79427,4.16667 -5.79427,11.84896 0,6.44531 3.841145,9.76562 3.90625,3.25521 14.713541,5.27344 l 7.942708,1.6276 q 14.713541,2.79948 21.679687,9.89584 7.031251,7.03125 7.031251,18.8802 0,14.12761 -9.505209,21.41927 -9.440104,7.29167 -27.734374,7.29167 -6.901042,0 -14.713541,-1.5625 -7.747396,-1.5625 -16.080729,-4.62239 v -13.54167 q 8.007812,4.49219 15.690104,6.77083 7.682291,2.27865 15.104166,2.27865 11.26302,0 17.382812,-4.42708 6.119791,-4.42709 6.119791,-12.63021 0,-7.16146 -4.427083,-11.19792 -4.361979,-4.03646 -14.38802,-6.05469 l -8.007813,-1.5625 q -14.713541,-2.92968 -21.289061,-9.17968 -6.575521,-6.25 -6.575521,-17.38282 0,-12.89062 9.049479,-20.31249 9.114583,-7.42188 25.065103,-7.42188 6.835937,0 13.932291,1.23698 7.096354,1.23698 14.518229,3.71094 z"
     style="font-size:133.33332825px;fill:#e6e6e6;fill-opacity:1"
     id="path4069"
     inkscape:connector-curvature="0" /><path
     d="m 163.86938,154.51535 q -14.32291,0 -22.78645,10.67709 -8.39844,10.67708 -8.39844,29.10156 0,18.35937 8.39844,29.03646 8.46354,10.67708 22.78645,10.67708 14.32292,0 22.65625,-10.67708 8.39844,-10.67709 8.39844,-29.03646 0,-18.42448 -8.39844,-29.10156 -8.33333,-10.67709 -22.65625,-10.67709 z m 0,-10.67708 q 20.44271,0 32.6823,13.73698 12.23958,13.67187 12.23958,36.71875 0,22.98177 -12.23958,36.71875 -12.23959,13.67187 -32.6823,13.67187 -20.50781,0 -32.81249,-13.67187 -12.23959,-13.67188 -12.23959,-36.71875 0,-23.04688 12.23959,-36.71875 12.30468,-13.73698 32.81249,-13.73698 z"
     style="font-size:133.33332825px;fill:#e6e6e6;fill-opacity:1"
     id="path4071"
     inkscape:connector-curvature="0" /><path
     d="m 227.86678,145.59608 h 13.21614 v 59.04948 q 0,15.625 5.66407,22.52604 5.66406,6.83594 18.35937,6.83594 12.63021,0 18.29427,-6.83594 5.66406,-6.90104 5.66406,-22.52604 v -59.04948 h 13.21615 v 60.67708 q 0,19.01042 -9.4401,28.71094 -9.375,9.70052 -27.73438,9.70052 -18.42448,0 -27.86458,-9.70052 -9.375,-9.70052 -9.375,-28.71094 z"
     style="font-size:133.33332825px;fill:#e6e6e6;fill-opacity:1"
     id="path4073"
     inkscape:connector-curvature="0" /><path
     d="m 373.04906,197.22369 q 4.23177,1.43229 8.20313,6.11979 4.03646,4.6875 8.07292,12.89062 l 13.34635,26.5625 h -14.1276 l -12.4349,-24.93489 q -4.81771,-9.76563 -9.375,-12.95573 -4.49219,-3.19011 -12.30469,-3.19011 h -14.32291 v 41.08073 h -13.15104 v -97.20052 h 29.68749 q 16.66667,0 24.8698,6.96615 8.20312,6.96614 8.20312,21.02864 0,9.17969 -4.29687,15.23438 -4.23178,6.05469 -12.3698,8.39844 z m -32.9427,-40.82032 v 34.50521 h 16.53645 q 9.50521,0 14.32292,-4.36198 4.88281,-4.42708 4.88281,-12.95573 0,-8.52864 -4.88281,-12.82552 -4.81771,-4.36198 -14.32292,-4.36198 z"
     style="font-size:133.33332825px;fill:#e6e6e6;fill-opacity:1"
     id="path4075"
     inkscape:connector-curvature="0" /><path
     d="m 485.74437,153.08306 v 13.86719 q -6.64063,-6.1849 -14.19271,-9.24479 -7.48698,-3.0599 -15.95052,-3.0599 -16.66667,0 -25.52083,10.22136 -8.85417,10.15625 -8.85417,29.42708 0,19.20573 8.85417,29.42708 8.85416,10.15625 25.52083,10.15625 8.46354,0 15.95052,-3.0599 7.55208,-3.05989 14.19271,-9.24479 v 13.73698 q -6.90105,4.6875 -14.64844,7.03125 -7.68229,2.34375 -16.27604,2.34375 -22.07031,0 -34.76563,-13.47656 -12.69531,-13.54167 -12.69531,-36.91406 0,-23.4375 12.69531,-36.91406 12.69532,-13.54167 34.76563,-13.54167 8.72396,0 16.40625,2.34375 7.74739,2.27865 14.51823,6.90104 z"
     style="font-size:133.33332825px;fill:#e6e6e6;fill-opacity:1"
     id="path4077"
     inkscape:connector-curvature="0" /><path
     d="m 506.05688,145.59608 h 61.45833 v 11.06771 h -48.30729 v 28.77604 h 46.28906 v 11.06771 h -46.28906 v 35.22135 h 49.47916 v 11.06771 h -62.6302 z"
     style="font-size:133.33332825px;fill:#e6e6e6;fill-opacity:1"
     id="path4079"
     inkscape:connector-curvature="0" /></g><text
   xml:space="preserve"
   style="font-style:normal;font-weight:normal;font-size:40px;line-height:1.25;font-family:sans-serif;letter-spacing:0px;word-spacing:0px;fill:#000000;fill-opacity:1;stroke:none"
   x="258.05084"
   y="311.44067"
   id="text4059"><tspan
     sodipodi:role="line"
     id="tspan4057"
     x="258.05084"
     y="346.8313"></tspan></text>
<flowRoot
   xml:space="preserve"
   id="flowRoot4061"
   style="fill:black;fill-opacity:1;stroke:none;font-family:sans-serif;font-style:normal;font-weight:normal;font-size:192px;line-height:1.25;letter-spacing:0px;word-spacing:0px;"><flowRegion
     id="flowRegion4063"
     style="font-size:192px;"><rect
       id="rect4065"
       width="335.59323"
       height="218.64407"
       x="91.525421"
       y="160.16949"
       style="font-size:192px;" /></flowRegion><flowPara
     id="flowPara4067"></flowPara></flowRoot><path
   inkscape:connector-curvature="0"
   d="M 181.70057,313.00326 H 431.0113 v 115.71316 h -53.42373 v 38.57106 h 89.03955 V 274.4322 H 146.08475 v 192.85528 h 89.03955 v -38.57106 h -53.42373 z"
   id="path4113"
   style="color:#ffffff;fill:#e6e6e6;fill-opacity:1;stroke-width:18.53199768" /><path
   inkscape:connector-curvature="0"
   d="M 383.46596,525.14406 306.35594,409.4309 229.24537,525.14406 Z"
   id="path4115"
   style="color:#ffffff;fill:#e6e6e6;fill-opacity:1;stroke-width:18.53199768" /></svg>